<?xml version="1.0" encoding="UTF-8"?>
<svg id="Capa_1" data-name="Capa 1" xmlns="http://www.w3.org/2000/svg" viewBox="0 0 405 599">
  <defs>
    <style>
      .cls-1 {
        fill: #fff;
      }

      .cls-1, .cls-2 {
        fill-rule: evenodd;
      }
    </style>
  </defs>
  <path class="cls-1" d="M5.95,605.84c70.48,10.71,142.24,11.25,213.3,7.36,28.12-2.11,56.34-2.49,84.44,.21,16.61,1.24,89.41,6.8,95.36-8.08-3.74-79.24-11.33-159.15-34.59-235.36-9.57-27.06-17.78-49.52-36.45-71.91-5.88-6.11-18.58-18.94-25.85-23.12-6.3-3.62-8.93-2.33-12.55-8.45-3.59-6.76-6.25-18.05-11.35-22.82-5.2-4.86-12.9-3.12-22.45-1.55,1.75-23.71-9.18-29.75-24.26-34.26-26.49-10.12-52.65-5.03-59.32,27.23-12.36,0-19.31,5.32-26.81,10.44-3.07,2.09-.93,7.42-4.6,9.06-6.78,2.42-18.77,1.82-25.3,4.8-29.69,13.52-56.14,33.13-73.51,61.76C3.08,382.29-23.67,511.07-19.04,583.53c-2.03,3.18,.78,7.74,1.49,11.16,.9,2.98,3.81,4.96,6.85,4.62,4.24,4.57,10.81,5.58,16.65,6.53Z"/>
  <path class="cls-1" d="M217.49,4.16c24.15,0,53.13,11.71,55.6,11.95h.07c1.3,0,6.36,3.86,15.2,11.59l-9.57,18.67,.77,.74c3.71,3.55,6.87,6.79,9.37,9.35,20.39,20.85,24.05,102.73,19.25,131.28-4.8,28.55-13.7,56.49-55.13,56.49s-87.52-24.92-94.62-32.69c-4.73-5.17-10.05-7.65-15.95-7.44-.24-.31-.48-.61-.72-.92l-.87-.12c-8.17-1.18-14.02-2.78-17.55-4.78-6.91-3.91-14.5-24.46-14.5-28.99s-11.34-37.09-11.56-40.54v-.1c0-2.89-14.81-16.15-14.81-20.36s-2.99-3.96,0-18.8l.87-4.36c3.18-15.8,9.39-41.96,33.1-53.33,26.05-12.49,76.68-27.66,101.08-27.66Z"/>
  <path class="cls-2" d="M297.67,267.15c-.43-.24-.05-.86,.38-.65,20.9,9.81,36.94,27.02,48.22,46.91,11.68,20.59,18.34,43.97,24.08,66.82l.21,.82c6.12,24.45,11.33,49.14,16.01,73.9,4.74,25.07,8.55,50.3,11.62,75.63,1.52,12.53,2.87,25.07,3.92,37.64,.53,6.28,1.01,12.57,1.43,18.86,.17,2.52,.33,5.03,.47,7.55l.1,1.89c.09,1.71,.29,3.43-.13,5.12-.37,1.46-1.14,2.78-1.81,4.11-1.34,2.64-5.02,2.21-6.46,0l-.42-.64c-.96-1.48-1.75-2.86-2.05-4.7-.29-1.79-.3-3.66-.43-5.46-.24-3.32-.44-6.64-.68-9.96-.49-6.99-1.04-13.97-1.65-20.95-1.2-13.78-2.49-27.54-4.08-41.28-2.82-24.42-6.35-48.77-10.52-72.99-4.07-23.66-9.22-47.09-14.59-70.48l-.56-2.42c-9.4-40.85-23.89-87.88-63.06-109.71ZM75.04,427.09c.15-.41,.82-.5,.93,0,1.41,6.34,1.55,12.88,1.76,19.37,.21,6.41,.2,12.84,.11,19.25-.34,23.56-.99,47.09-1.55,70.64-.28,11.78-.54,23.56-.74,35.35-.08,4.42-.14,8.84-.19,13.26l-.06,5.83c-.03,2.58-.1,5.12-.41,7.7-.21,1.69-.65,3.31-1.58,4.76-.66,1.03-1.61,1.55-2.53,2.25l-.17,.13c-1.17,.93-2.41,.93-3.58,0l-.34-.27c-1.11-.87-2.07-1.55-2.78-2.92-.99-1.91-1.15-3.99-1.31-6.1-.25-3.2-.09-6.44-.05-9.64,.07-6.43,.15-12.85,.27-19.28,.41-23.57,1.23-47.15,2.72-70.68,.7-11.08,1.65-22.2,2.93-33.24l.24-2.07c.39-3.25,.74-6.55,1.14-9.87-5.94-4.18-11.17-9.26-15.62-15.01-.33-.42,.21-1.02,.61-.61,4.55,4.72,9.77,8.48,15.55,11.43,.95-6.94,2.25-13.85,4.67-20.28Zm99.29-210.12c.08-.06,.21-.09,.29,0,1.28,1.49,1.02,3.77,1.06,5.66v.18c.1,2.76,.11,5.51,.1,8.27l-.03,8.79c0,1.21-.1,2.47-.04,3.68l.03,.47c.67,.69,.98,1.68,.76,2.68-.04,1.28-.71,2.35-1.69,3.02l2.09,2.97,2.09,2.97c4.32,6.12,8.68,12.19,13.23,18.15,4.64,6.07,9.58,11.91,14.76,17.53,2.53,2.74,5.1,5.45,7.73,8.1,1.07,1.08,2.16,2.12,3.25,3.18l1.08,1.07c.64,.64,1.44,1.27,1.86,2.08,.25,.48,.31,1.65,.4,1.85,.8,1.76-.56,4.56-2.83,3.68l.1-.07c.41-.29,.15-.29-.79-.01-.59,0-1.15-.14-1.67-.41l-.15-.08c-.73-.37-1.39-1.09-1.98-1.67l-.15-.14c-1.36-1.28-2.66-2.63-3.96-3.96-2.72-2.78-5.38-5.62-7.95-8.54-5.14-5.82-10-11.87-14.62-18.11-4.7-6.36-9.06-13.04-12.82-20-1.42-2.64-2.73-5.33-3.98-8.05-2.44-.78-3-3.38-2.83-6.3-.9-2.1-1.71-4.23-2.19-6.42-.07-.3,.32-.58,.55-.32,.78,.89,1.5,1.83,2.2,2.8,.42-2.05,.95-3.93,1.2-5.14l1.08-5.31c-6.09-.32-12.76,2.19-16.96,6.57-.23,1.14-1.1,1.96-1.96,3.02-.98,1.22-1.83,2.59-2.47,4.02-1.41,3.17-.61,7.85-3.35,10.17-.29,.24-.6,.41-.93,.51,1.3,6.37,.71,13.4,.68,19.86v.57c0,7.24-.24,14.48-.51,21.71l-.29,7.16c-.37,9.54-.61,19.09,.32,28.58,4.23-3.75,8.61-7.33,13.13-10.74,2.98-2.24,6.01-4.4,9.1-6.49l2.51-1.68c3.01-2.02,6.09-4.1,9.39-5.54,4.31-1.89,8.41-1.24,12.57,.7,4.14,1.93,8.16,4.17,12.23,6.27,4.13,2.13,8.28,4.24,12.42,6.36,2.74,1.4,6.76,2.67,8.77,5.25,.13-.57,.28-1.14,.45-1.71-.2-.86-.12-1.8,.36-2.69,6.76-12.43,13.01-25.15,19.22-37.86,3.14-6.43,6.13-12.94,9.28-19.37l3.06-6.26c.51-1.04,1.02-2.08,1.54-3.13,.77-1.56,1.58-3.1,2.36-4.65,.33-.66,.74-1.31,1.07-1.97l.15-.33s.75-2.35,.18-2.13l-.05,.02c-.29,.17-.53-.2-.34-.44,.81-1,1.94-.11,2.4,.81,1.27,2.55-1.06,6.56-1.96,9.01l-.05,.14c-2.79,7.89-5.94,15.63-9.17,23.35-6.2,14.79-12.86,29.36-19.5,43.95l-.08,.25c1.42-1.09,2.93-2.07,4.22-3.03,3.27-2.42,6.63-4.72,9.99-7.02,6.16-4.21,12.48-8.14,18.91-11.92l1.29-.75c3.21-1.87,6.39-3.39,10.2-2.83,3.54,.52,6.83,2.42,10.03,3.97l.33,.16,9.89,4.7c-1.06-4.22-2.2-8.41-3.4-12.59-2.33-8.15-4.89-16.24-7.67-24.25-2.59-7.49-5.4-14.89-8.37-22.24l-.89-2.21c-1.21-3.03-2.41-6.32-5.87-7.25-3.46-.93-7.42,.45-10.58-1.52-.29-.18-.25-.65,.1-.74l1.95-.49c3.66-.91,7.95-1.83,11.41-.94,3.76,.96,6.88,4.13,8.71,7.41,2.03,3.66,3.46,7.75,5,11.65l.24,.61c1.77,4.41,3.47,8.85,5.1,13.32,3.26,8.93,6.22,17.96,8.9,27.08,1.29,4.39,2.52,8.81,3.7,13.23,.34,1.27,.9,2.82,1.36,4.42,.53,.51,1.02,1.08,1.49,1.74,.77,1.08,.22,2.35-.74,3-.04,1.11-.28,2.15-.87,3.04-2.3,3.49-8.36,2.59-8.12-2.1,.04-.72,.32-1.4,.74-1.98v-.09s-.06-.17-.06-.17c-1.05-.51-2.11-1.07-3.23-1.62l-10.38-5.13c-3.01-1.49-6.33-3.78-9.68-4.35-3.11-.53-6.4,1.79-9.08,3.2l-.17,.09c-6.47,3.32-12.89,6.75-19.29,10.2-3.12,1.69-6.21,3.45-9.32,5.15-2.6,1.43-5.41,3.48-8.33,4.28-1.25,.97-2.73,.84-3.92,.11,.54,3.38,.51,6.84,.68,10.29,.22,4.61,.26,9.24,.33,13.86l.03,1.73c.2,10.21,.3,20.43,.34,30.65,.14,36.38-.26,72.78-.36,109.16-.05,18.28-.41,36.58-.88,54.85-.2,7.74-.62,15.48-1.08,23.21l-.25,4.22c-.53,8.9-.84,17.89-2.49,26.67-.21,1.14-2.15,1.17-2.34,0-1.52-9.41-1.6-19.02-1.89-28.53l-.06-1.9c-.35-10.22-.52-20.43-.48-30.65,.13-36.4,1.07-72.77,1.85-109.16,.39-18.28,.65-36.57,1.25-54.85,.3-9.15,.64-18.28,1.05-27.43,.18-4.08,.36-8.16,.63-12.23l.12-1.75c.08-1.14,.15-2.27,.24-3.38-3.68,1.35-7.05-1.14-10.36-2.85-3.82-1.96-7.63-3.93-11.45-5.89l-3.82-1.96-7.65-3.9c-3.44-1.76-6.1-3.51-9.77-1.45-13.23,7.43-25.39,17.31-36.4,27.67-2.11,1.99-6.58,1.45-7.11-1.88-2.29-14.24-.9-28.68,.27-42.96l.43-5.3c.52-6.33,1.09-12.66,1.85-18.97,.34-2.82,.68-5.64,1.05-8.45l.29-2.11c.47-3.34,.77-6.65,1.76-9.86-.31-.1-.61-.27-.88-.52-2.99-2.84-1.55-7.76-.18-11.13,1.35-3.33,3.4-6.24,5.97-8.74,.56-.55,1.35-.9,2.15-.92,6.23-4.13,13.07-6.19,20.18-3.94,.2-.96,.4-1.91,.62-2.86l.22-.95c.55-2.36,.76-6.27,2.8-7.85Zm63.88,373.08c1.93-.53,4.05,.03,5.47,1.45,1.42,1.42,1.98,3.54,1.44,5.47-.27,.95-.75,1.78-1.44,2.48-.65,.65-1.41,1.11-2.28,1.39l-.2,.06-.32,.13c-.97,.26-1.94,.26-2.91,0-.93-.26-1.73-.73-2.41-1.41-.68-.68-1.15-1.49-1.41-2.42-.26-.97-.26-1.94,0-2.91l.13-.32c.27-.95,.75-1.78,1.45-2.48,.7-.7,1.53-1.18,2.48-1.45Zm114.84-192.82c.32-.36,.83,.1,.64,.49-3.01,5.91-6.37,11.77-9.67,17.53,.26,1.6,.53,3.18,.83,4.72,1.29,6.58,2.86,13.04,3.89,19.68,3.69,23.87,5.61,47.99,7.25,72.08,1.65,24.17,1.86,48.35,2.11,72.56,.02,2.1-1.59,4.54-3.75,4.93-.99,.18-1.73,.15-2.72,0-2.25-.33-3.66-2.91-3.76-4.93-.64-13.53-1.51-27.05-2.52-40.56-1.78-23.96-2.87-47.98-4.31-71.96l-.51-8.38c-.54-9.08-1.04-18.17-1.2-27.27-.11-6.03,.21-12.05,.02-18.07-.18-5.56-.75-11.6,.48-17.06,.04-.2,.37-.26,.46-.06,1.27,2.68,2.08,5.6,2.7,8.57,3.28-4.15,6.62-8.31,10.07-12.28ZM138.12,250.46c.46-.03,.44,.66,0,.71-6.44,.75-12.66,3.37-18.74,5.6l-.52,.19c-6.14,2.23-12.13,4.82-17.89,7.91-11.27,6.04-21.61,13.83-30.76,22.76-36.52,35.61-53.17,86.96-65.37,135.21-6.78,26.81-11.6,54.07-14.72,81.54-1.54,13.59-2.64,27.23-3.27,40.88-.33,7-.53,14.01-.62,21.01-.04,3.59-.06,7.18-.05,10.77,0,1.65,.3,3.72-.14,5.31-.41,1.48-1.56,2.78-2.41,4.02-1.01,1.46-2.82,1.39-3.84,0l-.38-.5c-1.09-1.45-2.16-2.83-2.31-4.72-.17-2.03-.05-4.12-.06-6.15-.02-4.1,.03-8.21,.12-12.31,.16-7.86,.47-15.72,.93-23.57,.93-15.93,2.47-31.83,4.67-47.63,3.91-28.09,9.78-55.92,17.47-83.22,7.25-25.76,15.84-51.44,28.08-75.29,11.36-22.15,26.27-42.76,45.93-58.24,9.15-7.2,19.1-13.2,29.84-17.72,5.41-2.28,11.1-4.14,16.88-5.2,5.72-1.05,11.41-.9,17.18-1.35Zm101.19,294.08c1.02,0,2.16,.22,3.04,.78l1.17,.91c.32,.41,.63,.82,.95,1.23,.73,.96,.83,2.5,.68,3.64-.03,.76-.26,1.47-.68,2.12l-.89,1.15c-.86,.7-1.57,1.2-2.61,1.53-.54,.17-1.06,.21-1.59,.18h-.17s.1,0,.1,0l-.18-.02c-.17-.02-.34-.03-.51-.06-.12-.02-.23-.02-.35-.04-.11,0-.22-.01-.33,0-1.32,.12-2.64-.62-3.58-1.48-.84-.77-1.6-2.42-1.48-3.58l.05-.49c.09-.82,.16-1.14,.51-1.97,.34-.8,.81-1.51,1.45-2.11,1.23-1.15,2.74-1.79,4.42-1.8Zm-4.08-60.06c1.75-1.91,4.76-2.05,6.93-.89,.53,.28,1.01,.73,1.48,1.11,1.18,.95,1.64,2.66,1.7,4.11,.06,1.43-.69,3.12-1.7,4.11l-.24,.24c-.61,.59-1.47,1.1-2.32,1.26-1.37,.25-2.51,.24-3.78-.29-1.09-.46-2.03-1.2-2.67-2.21l-.1-.17c-.04-.07-.08-.14-.12-.21l-.06-.11c-1.22-2.34-.89-4.99,.89-6.93Zm.91-60.38c.79-.25,1.58-.28,2.37-.11,.54,0,1.04,.14,1.5,.4,.5,.14,.94,.4,1.31,.76,.45,.26,.8,.62,1.07,1.06,.53,.57,.88,1.25,1.06,2.02l.21,1.58-.21,1.58-.6,1.42c-.17,.21-.33,.43-.5,.64-.26,.45-.62,.8-1.07,1.07-.29,.29-.62,.51-1,.66-1.32,.95-3.08,1.26-4.65,.83-.93-.26-1.74-.73-2.42-1.41-.68-.68-1.15-1.49-1.41-2.42l-.11-.74c-.14-1-.16-1.55,.12-2.82,.12-.56,.48-1.34,.67-1.67,.8-1.41,2.11-2.38,3.66-2.85Zm68.53-43.44c2.27-.02,4.53-.01,6.8,.01l1.7,.02c2.85,.04,5.28-.25,7.52,1.73,1.62,1.43,.91,3.84-.63,4.92-2.34,1.64-5.27,.81-7.95,.63-2.83-.19-5.67-.35-8.5-.48-5.49-.24-10.98-.4-16.47-.43-5.48-.02-10.97,.03-16.45,.12-5.58,.09-11.38,.61-16.93,.03-.76-.08-.93-1.08-.18-1.34,5.23-1.81,11.11-2.4,16.58-3.09,5.65-.71,11.3-1.22,16.98-1.55,5.84-.33,11.69-.55,17.54-.59Zm-68.54-17.76h.19c1,0,1.93,.24,2.8,.71l.18,.1,1.2,.93c.73,.74,1.24,1.61,1.52,2.61l.21,1.57c.03,.82-.14,1.58-.51,2.28-.24,.73-.65,1.37-1.22,1.9-.54,.58-1.17,.99-1.9,1.22-.65,.34-1.35,.51-2.09,.51h-.19c-1.07,0-2.06-.28-2.99-.81l-1.2-.93c-.73-.74-1.24-1.61-1.52-2.61l-.21-1.57c-.03-.82,.14-1.58,.51-2.28,.24-.73,.65-1.37,1.22-1.91,.54-.58,1.17-.99,1.9-1.22,.65-.34,1.35-.51,2.09-.51Zm17.54-139.08c1.27-1.85,3.58-.21,3.26,1.28,.09,4.17,.3,8.22,1.25,12.31,.43,1.87,1,3.74,1.88,5.46l.37,.72c1.14,2.24,2.02,4.36,.49,6.83-.72,1.16-2.02,2.03-3.44,1.97-6.26-.27-7.13-9-7.51-13.87-.39-5.02,.83-10.53,3.7-14.7Z"/>
  <path class="cls-2" d="M112.39,31.23C125.39,17.43,199.14-3.91,236.46,.62l1.12,.15c2.98,.38,5.91,.95,8.81,1.73,9.36,2.19,19.03,5.5,26.77,11.03,6.46,4.53,26.83,11.92,20.83,23.76,2.23,4.22,3.06,9.43,1.55,13.59-.19,1.44-.63,2.76-1.2,4.13,4.76,7.02,8.52,14.96,11.57,22.52,5.33,19.01,8.64,38.79,9.13,58.19,1.62,36.85-2.42,80.87-34.5,104.7-19.38,15.1-49.73,15.61-71.51-3.12-1.24-1.46-7.05-5.41-5.11-6.1,.58,.61,1.17,1.2,1.77,1.79-.03-.07-.03-.13-.02-.2l-.57-.51c-1.07-.99-2.46-2.43-.88-2.15,.07,.08,.15,.15,.22,.23,.33,.2,.59,.37,.78,.53l.1,.08-.03-.03c-.91-.97-1.46-1.96-.1-1.33l.18,.09c.6,.64,1.22,1.25,1.85,1.84,0-.07,0-.14,.04-.22l-.58-.56c-.57-.56-.48-.56-.2-1.01-1.21-1.7,1.05-.69,1.21-.03,1.41-.33,2.65,2.32,3.57,2.65,39.92,30.71,97.85,3.46,96.91-82.1v-1.67c-.29-27.36-2.59-55.48-13.9-80.25-1.1-2.39-2.33-4.71-3.68-6.95-.93-1.68-1.93-3.32-3-4.92-3.01-.24-5.97-.79-8.9-1.65-1-.25-2-.53-2.99-.86-14.5,.79-28.68,1.65-43.22,2.47l-4.54,.28c-12.32,.79-25.06,2.06-35,9.68-9.75,6.94-9.8,20.63-18.15,28.24-11.91,8.09-11.99,15.38-14.29,27.29,.17,8.98,6.39,22.03-5.03,25.81,1.93,2.75-.76,1.43-.97,.46-.02,0-.04,.01-.06,.01,1.72,3.19-.81,1.18-1.03,.16-.14-.04-.27-.14-.4-.27,1.73,2.8-1.07,.84-.9,.33-3.34-5.14-10.22-5.94-15.07-4.58-.06,.18-.28,.2-.41,.1-20.62,4.47-15.3,47.18,5.83,43.06,.9-.18,.88,.25,1.06,.29-.49-1.28,.89-.76,.87-.49h.08c.07-.01,.04-.02,.09,0-.47-2.62,2.18,1.18,1.97,1.33,.08-.05,.17-.08,.25-.09l-.09-.25c-.44-1.17-.4-.69-.4-1.36-.33-.83-.36-.47-.28-1.01,1.16-.9,1.51,1.83,1.9,2.03-.67-.93-.14-1.69,.49-1.18,4.76,10.02,10.91,19.43,18.85,26.84,.87,.68,1.75,1.36,2.66,2,3.38,2.94,8.56,4.84,11.73,7.45,0,.04-.02,.1-.05,.15l.07,.07,.07,.07,1.1,.53c.32,.28,.61,.58,.87,.92,.28,.32,.52,.67,.72,1.04,.1,.45-.12,.64-.56,.45-.19-.07-.38-.14-.57-.21,.01,.02,.01,.03,.03,.04,.06,.09,.48,1.07,0,.91l-.06-.02c-.26-.1-.53-.21-.79-.31,.31,.38,.59,.8,.83,1.15,.27,.28,.43,.6,.49,.97-.01,.21-.12,.29-.33,.26-.31-.1-.62-.21-.93-.32l.09,.17c.22,.43,.53,1.15-.02,.91-.47-.15-.92-.31-1.38-.5-.04,.07-.11,.1-.26,.03-1.44-.51-2.83-1.14-4.16-1.88-1.17-.85-2.35-1.69-3.53-2.54-1.11-.66-2.18-1.4-3.19-2.23-6.82-4.41-12.79-10.01-17.53-16.25-7.92,6.87-23.77,.31-33.57-5.07-8.67-4.8-12.08-13.69-12.96-23.26-1.83-12.89-12.36-17.31-11.63-45.59-.02,0-.03,0-.05,0-.38-.11-.75-.26-1.11-.46-.36-.17-.7-.38-1.02-.63l-.39-.54c-.2-.11-.39-.23-.53-.35l-.07,.09c-.23,.28-.08-.14-.06-.22l-.68-.93c-1.62-2.21-3.4-4.7-4.85-6.69l-.05,.08c-.03,.06-.05,.11-.03,.12-3.45-4.96-6.69-10.95-7.6-16.75-1.06-4.47-.65-9.07,.28-13.21,3.98-14.49,17.02-47.28,34.14-61.33Zm93.62,200.38l-.22-.19,.19,.24c.1,.12,.2,.23,.37,.35-.01-.04-.01-.08,0-.12-.11-.08-.22-.18-.34-.27ZM236.29,7.9c-25.31-2.18-50.19,3.4-74.34,10.15l-1.66,.48c-13.73,3.92-28.25,7.45-39.85,15.84-16.21,12.42-24.58,32.19-31.89,50.43-6.38,13.56-3.12,28.84,6.5,38.31,1-9.41,2.71-18.54,5.37-27.6,.56-1.42,.14-1.88,1.33-2.06,1.81,24.41-7.11,42.45,10.54,71.38,7.66,13.65-1.21,23.64,20.42,30.82l.59,.22c4.5,1.7,9.42,3.04,13.84,2.09l-.4-.64c-.4-.66-.53-.98,.06-1.27-.01-.03-.04-.07-.06-.1-.47-.9-.93-1.8-1.37-2.72-.18,.06-.36,.1-.54,.15,.12,.22,.13,.44-.2,.52-1.19,.41-2.41,.57-3.66,.49l-.27-.02c-1.41-.09-2.3-.34-3.1-.58-.26-.04-.53-.09-.79-.14-2.56-.57-5.27-2.01-7.02-3.44-19.99-11.36-17.93-50.03,6.72-53.69,.51-24.35,12.08-65.43,31.29-88.63,17.37-21.34,64.77-30.59,97.75-27.33,.48,.16,.96,.32,1.44,.48,5.09,.45,9.94,2.72,15.03,3.77-3.66-2.74-7.8-4.57-12.08-6.12-8.51-5.21-18.27-8.03-27.7-10.02-1.95-.48-3.93-.74-5.95-.79Zm-100.92,148.19c1.32-.72,1.17-.02,1.48-.23,9.53-.78,19.81,7.57,25.13,14.53-.42,.44-1.56-.86-1.76-1.06-.03,.03-.06,.05-.09,.06l.15,.21c2.16,3.1-2.12-.55-2.52-1.3-.07,.04-.14,.06-.22,.04,.34,.33,1.38,1.2,1.55,1.82l.27,.23c2.59,2.22,2.38,3.89-.57,.74,.07,.15,.1,.28,.05,.39l.1,.07c1.45,1.01,2.64,3.83-.39,.94,.32,2.11-3-1.97-3.1-1.94-5.73-4.5-14.16-8.87-21.35-9.46l-.25-.03c-1.32-.17-1.94-.56-1.48-1.42-1.62-.39-1.24-1.19-.48-1.16-1.14-.75-.11-1.47,.55-1.19-.46-1.27,1.38-.42,1.54-.6,.95-1.47,1.21-.24,1.36-.62Zm-19.98-78.45c4.58-1.68,18.1,3.34,17.02,10-.64,1.53-2.77,2.4-4.26,1.54l-1.95-1.31c-3.39-2.27-6.44-4.26-10.08-6.24-1.98-.98-2.83-3.07-.73-3.99Zm26.04-9.88l-1.77-1.15c-9.54-6.25-23.03-15.71,.89-5.92,2.73,1.17,6.35,1.86,7.83,4.46,2.34,4.79-3.81,5.11-6.96,2.61Zm1.07-28.03c-.77-2.91,8.76,.5,11.53,1.4l.42,.16c2.7,1.01,5.79,1.94,7.4,4.27,1.89,3.22-1.94,3.88-4.31,2.43-4.86-3.18-10.19-5.57-15.05-8.26Zm24.22-13.54c-5.36-5.86,8.99-.25,11.14,1.31l.06,.05c1.6,1.13,1.28,3.56-.23,4.28-4.29,.08-7.44-3.49-10.97-5.64Zm24.4-6.42c-8.52-6.13,2.7-3.21,6.6-.81,2.66,2.35-.08,6.3-6.6,.81Z"/>
  <path class="cls-2" d="M227.85,181.71c8.98-1.09,43.83,3.03,44.84,2.57,2.07-.94,3.72-1.36,5.99-1.27,2.08,.08,4.16,.3,6.21,.67,3.71,.68,7.45,2.23,10.16,4.93,6.29,6.23,5.33,16.25,.47,23.04-10.04,14.03-28.36,14.68-44.05,14.5l-1.45-.02c-14.29-.2-34.73,1.93-41.22-14.38-2.39-6-2.06-12.95,.87-18.7,3.49-6.86,10.82-10.44,18.17-11.33Zm44.63,23.36h-.13c-6.59,.26-13.17,.44-19.76,.56,.2,1.7,.4,3.4,.63,5.09,.18,1.33,.37,2.67,.58,4,.09,.56,.4,1.44,.31,2l-.03,.22c.34,.15,.65,.4,.87,.76,.08,.12,.14,.25,.2,.37,5.12,.04,10.62-.06,15.84-.99v-.11c.11-.67,.38-1.12,.75-1.43,.37-2.13,.33-4.4,.48-6.52,.09-1.31,.18-2.63,.28-3.94Zm-24.92,.65c-4.75,.08-9.5,.14-14.24,.09l-2.15-.03c.45,2.45,.95,4.89,1.36,7.36,.43,2.57-1.83,4.2-3.78,4.14,.22,.04,.44,.07,.66,.1,6.1,.87,12.43,.64,18.61,.63-.33-1.95-.2-4.15-.25-5.78v-.25c-.1-2.09-.17-4.17-.21-6.25Zm-32.25-.45c.16,1.27,.48,2.52,.96,3.68,2.03,4.9,6.67,7.19,11.59,8.16-.85-.3-1.53-1.01-1.7-2.22-.43-3.02-.58-6.1-.59-9.17-3.43-.03-6.88-.11-10.26-.45Zm75.04-1.05c-2.44,.58-5.27,.31-7.67,.42-2.24,.1-4.48,.19-6.73,.28,.11,1.54,.21,3.07,.32,4.61,.14,1.98,.16,4.08,.54,6.06,4.51-1.55,8.56-4.02,11.59-7.99,.76-.99,1.43-2.15,1.95-3.38Zm-63.52-14.46c-4.06,.96-7.9,3-9.97,6.73-1.23,2.21-1.77,4.84-1.66,7.42,3.43-.4,6.92-.55,10.4-.68,.01-.63,.03-1.26,.05-1.88l.05-1.6c.09-3.06,.14-6.9,1.13-9.99Zm21.02,.37l-1.79-.2c-4.96-.57-9.93-1.16-14.89-.82-.72,.05-1.45,.13-2.18,.24,.88,3.18,.8,6.91,1.17,10.06,.14,1.22,.32,2.42,.52,3.62l.86-.04c5.33-.29,10.66-.47,15.99-.68,0-1,0-2.01,.02-3.01l.02-1.01c.06-2.57-.1-5.46,.27-8.15Zm24.93-.41c-5.2,.84-10.57,1.02-15.68,1.03-2.04,0-4.08-.12-6.12-.3,.13,1.09,.2,2.19,.3,3.26,.2,2.17,.43,4.34,.68,6.5l.22,1.89c6.55-.3,13.11-.62,19.66-.95l.92-.05,.26-3.64c.18-2.43,.37-4.85,.65-7.27l-.21-.07c-.24-.1-.47-.24-.69-.39Zm2.26,.9c.29,3.43,.44,6.88,.66,10.32l4.32-.23c.72-.04,1.44-.08,2.16-.12,2.8-.16,6.4-1.01,9.16-.22,.21-2.52-.51-4.98-2.78-6.68-3.99-2.98-9.06-1.92-13.52-3.06Zm-20.09-39.45c6.62-3.79,23.23-7.67,24.28,4.25,.48,5.49-3.59,10.03-8.35,12.06l-.18,.07c-4.46,1.84-12.38,3.91-16.24-.07-3.22-3.31,1.05-9.26,5.04-6.54,2.05,1.39,6.38,.37,8.67-.3l.14-.04c2.47-.73,5.77-3.05,4.75-6.1-.9-2.7-4.75-3.19-7.17-3.27-3.6-.13-7.1,.71-10.67,.98-.57,.04-.74-.78-.28-1.04Zm27.42-19.17c8.98-.42,14.57,9.4,12.51,17.44-.36,1.39-1.91,2.75-3.41,2.59l-.38-.04c-.19-.02-.39-.04-.56-.09-1.42-.39-2.7-1.87-2.59-3.41l.03-.45c.21-3.8-.2-8.18-4.71-9.1-3.83-.78-5.96,2.9-6.01,6.3,0,.6-.68,1.02-1.22,.7-2.77-1.68-3.25-5.04-2.19-7.92,1.34-3.66,4.69-5.85,8.53-6.03Zm-66.68,2.11c6.54-2.18,13.59,1.3,16.76,7.09,1.11,.32,2.22,1.18,2.07,2.49-.22,1.89-.56,3.08-1.87,4.51-2.04,2.24-5.88,1.09-6.73-1.66l-.04-.12c-.97-3.56-4.88-5.91-8.45-4.67-4.17,1.46-4.05,5.86-6.97,8.43-.34,.3-.76,.35-1.17,.15-3.11-1.5-2.55-6.02-1.44-8.61,1.45-3.4,4.28-6.41,7.84-7.6Zm-8.9-19.87c5.3-5.41,19.12-10.64,22.74-.65,.69,1.9-.78,4.47-2.76,4.86-3.24,.64-6.12-.76-9.34-.51-2.61,.21-5.33,1.08-7.41,2.69-5.77,4.48-7.04,12.05-11.07,17.74-.2,.28-.58,.16-.61-.17-.92-8.29,2.64-18.04,8.45-23.97Zm69.1-5.32c3.52-1.24,7.5-1.14,11.03-.03,3.56,1.11,6.83,3.22,9.35,5.98,1.14,1.25,2.2,2.63,3.05,4.1,.45,.78,.92,2.39,1.44,3.35,2.77,1.6,3.95,5.25,1.47,7.84l-.11,.11-.33,.33c-1.33,1.32-3.34,1.89-5.16,1.36-4.07-1.18-4.57-4.39-5.98-7.79-.93-2.25-2.53-4.24-4.46-5.7-4.57-3.45-12.07-4.56-17.57-2.93-.29,.09-.64-.29-.43-.56,1.04-1.35,1.64-2.46,3.04-3.55,1.42-1.11,2.96-1.91,4.66-2.51Z"/>
  <path class="cls-2" d="M215.3,206.29c4.37-10.24,13.9-17.76,24.88-20.51,8.06-2.01,16.52-1.95,24.73-1.15,4.3,.42,8.92,.76,12.98,2.36,3.46,1.37,6.29,3.95,8.41,6.98,2.53,3.59,4.24,7.7,5.45,11.92,.17,.6,.33,1.2,.48,1.81-.52,3.18-1.64,5.89-4.58,7.89-2.87,1.95-6.3,2.75-9.72,3.03-.33-.16-.66-.33-.95-.5-.86,.1-13.15,4.6-29.3,3.57-11.45,1.33-22.89-2.11-32.2-8.66-.47-2.24-.5-4.5-.17-6.74Zm84.71-7.77c-.92-2.57-2.07-5.06-3.44-7.41-4.52-7.76-11.46-13.94-19.7-17.47-19.49-8.35-44.7-2.46-60.44,11.23-5.38,4.68-10.81,11.56-12.46,18.96-.49,.1-.95,.35-1.34,.71-11.37-7.16-23.08-14.05-32.24-23.98-6.65-7.21-11.28-15.75-14.12-25.13-.23-.77-1.48-.66-1.44,.2,.01,.2,.02,.4,.03,.6-.12-.37-.68-.18-.72,.18-1.52,11.4-3.43,23.48-1.67,34.93,1.05,6.83,4.15,11.84,8.3,17.24,4.44,5.79,9.48,11.18,14.62,16.35,3.26,3.28,6.68,7.06,10.67,9.47,4.65,2.79,9.92,4.92,14.89,7.07,5.05,2.2,10.17,4.23,15.39,5.99,10.44,3.53,21.22,5.98,32.2,7.05,8.79,.85,18.83,1.78,27.25-1.52,6.45-2.53,11.66-7.12,15.8-12.63,4.5-6,8.06-12.84,10.02-20.05,2.04-7.49-1.19-20.56-1.62-21.77Z"/>
  <path class="cls-2" d="M320.69,136.71c-5.14,34.81-41.05,38.66-47.43,4.1,1.02-.45,1.76-1.33,1.61-3.04-.04-7.53,2.3-15.49,9.09-19.68,7.02-4.32,15.23-4.75,23.35-4.64,15.49-.37,15.17,12.59,13.38,23.26Zm-53.05-15.14c-4.86-.21-11.01-.03-15.37,2.93-1.2-3.23-4.31-6.67-7.45-8.51,11.69,.34,23.71-.81,35.49-1.7-2.82,1.92-5.44,4.81-7.14,8.15-1.58-.84-3.85-.76-5.52-.86Zm-21.43,18.83c-13.48,46.44-47.14,26.2-50.81,20.25-6.62-9.85-7.86-33.79-2.1-40.19,8.25-5.79,19.94-4.3,29.69-4.44,17.91,.24,30.63,5.6,23.22,24.38Zm90.4-21.36c-3.66-.48-7.58-.58-10.98,1.04-1.05-4.46-4.34-8.19-8.06-9.83-.45-.56-.38-.87-1.92-.78-9.44-2.84-20-1.34-29.07,1.57-14.32,1.21-29.35,2.16-43.8,3.82-13.53-6.08-54.37-6.97-56.9,8.01-3.19-.48-8.63-2.99-11.31,.42-19.68-3.34-40,1.3-59.77,3.37-4.97,.92-7.54,10.79-1.89,10.66,3.17-.86-.1-6.15,4.18-6.55,19.06-2.08,37.71-5.04,56.97-5.39-.67,3.33,12.74,3.54,12.94,1.6,.03,.01,.06,.03,.09,.04-3.31,12.35-.32,30.13,5.67,37.8,8.39,10.03,29.45,12.91,38.79,6.45,12.05-5.96,24.58-35.86,21.06-45.79,6.39-2.03,12.71-1.42,19.34-.39-1.52,4.29-4.14,14.85-.37,15.77-.69,20.97,18.38,34.05,35.96,25.45,15.22-7.15,20.54-29.77,18.68-43.51,1.89,3.66,17.8-.32,10.39-3.77Z"/>
</svg>