<?xml version="1.0" encoding="UTF-8"?>
<svg id="Capa_1" data-name="Capa 1" xmlns="http://www.w3.org/2000/svg" viewBox="0 0 395 509">
  <defs>
    <style>
      .cls-1 {
        fill: #fff;
      }

      .cls-1, .cls-2 {
        fill-rule: evenodd;
      }
    </style>
  </defs>
  <path class="cls-1" d="M175.4,193.09c12.46,.62,31.87,5.96,32.85,9.38,1.51,5.34-1.74,25.34,3.71,36.11,2.32,4.59,11.14,4.18,14.55,5.68,11.43,5,45.26,14.5,52.24,26.45,2.79,4.79,19.97,64.2,29.1,94.51,1.03,3.42,2.19,6.58,3.45,9.5l.46-2.27c3.72-18.32,5.58-29.41,5.58-33.27,0-6.03-4.81-31.48,0-37.96,4.76-6.41,16.24-11.65,21.4-11.75h.15c3.39,0,6.33-1.06,8.83-3.18l3.65-1.84c18.6-9.33,29.46-14.46,32.59-15.36,5-1.45,13.51,1.63,9.26,6.26-2.84,3.08-9.96,8.54-21.38,16.36l-4.31,3.42,.52,.27c5.56,2.93,8.83,5.4,9.82,7.4,1.01,2.06,.52,4.51-1.45,7.32l.3,.29c2.5,2.46,3.75,4.1,3.75,4.94v4.1c2.49,3.65,3.11,6.69,1.87,9.12-1.24,2.43-3.22,4.54-5.92,6.33-1.99,5.24-4.36,8.97-7.11,11.18-2.75,2.22-7.5,4.06-14.26,5.54l-6.11,14.62-4.95,20.54-2.5,22.92,.72,.52c3.36,2.45,5.51,4.26,5.51,6.14,0,2.92-13.55,71.62-34.64,74.69-4.56,.66-28.21-2.6-35.98-8.92l.12,.68c1.83,11.04,1.44,16.77-1.16,17.2-31.96,5.24-122.72,6.86-272.29,4.86-.89-79.41,3.13-132.3,12.07-158.67,22.86-67.42,48.06-90.45,56.88-92.43,7.72-1.73,34.5-12.39,41.99-15.22,4.89-1.85,5.93-7.39,11.5-7.39h.45c5.39,.06,10.16,1.02,12.84-1.75,7.04-7.27,5.07-17.34,7.99-26.97,1.61-5.31,12.61-10.13,27.9-9.38Z"/>
  <path class="cls-2" d="M141.15,212.13c.73-1.45,2.67-1.26,3.96-.6,3.84,2.81-.18,8.26-1.24,11.69-2.74,6.65-7.49,13.16-14.04,16.27,.54,6.61,1.16,13.21,1.39,19.85,8.38,10.4,22.52,14.2,35.07,17.12,19.71,5.45,41.95-5.72,48.61-25.21-7.57-4.3-10.02-15.57-7.76-23.43,.2-.55,1.05-.8,1.36-.18,2.07,4.27,1.8,9.47,4.15,13.68,22.62,2.17,51.82,10.71,66.64,29.01,6.57,9.16,9.17,21.06,12.4,31.68,6.9,21.88,12.4,44.2,19.17,66.1l.8-4.14c2.19-11.41,4.17-22.98,2.7-34.59l-.03-.55c-.48-9.24-3.37-26.4,3.79-32.64,6.48-4.95,15.86-8.93,23.99-6.65,14.46-6.44,26.95-17.28,42.35-21.51,4.74-.98,11.56,.18,10.44,6.61-3.11,11.25-16.11,15.62-25,21.42,5.7,1.54,12.65,8.48,8.2,14.52-.04,.11-.07,.19-.11,.25,3.61,1.6,4.12,5.62,3.23,9.08-.09,.91-.33,.13,.21,.95,4.07,3.84,2.27,14.56-3.86,14.92,.4,5.08-2.86,10.01-6.99,12.78-4.45,2.98-10.89,3.11-14.57,7.2-8.65,15.26-11.63,33.27-12.58,50.75,5.7,2.14,10.82,8.52,5.64,13.94-.1,.01-.2,.02-.31,.03-3,8.02-4.16,16.57-5.75,24.94-2.44,14.29-8.81,27.41-16.94,39.31-9.4,15.76-34.69,13.26-47.43,3.09,.05,2.67,.49,5.32-.36,7.9-1.26,2.78-4.33,1.58-4.64-1.16-6.74,3.79-8.32-8.72-.83-6.73-.58-9.04-.91-18.1-1.18-27.15-8.48,2.74-8.84-11.32-.17-8.51v-3.89c-.07-29.82,.26-59.74,4.19-89.32,.36-2.21,.98-4.35,1.34-6.55,.04-.23,.39-.16,.4,.06,.61,41.42-2.1,82.93,.73,124.36,2.35,.72,3.29,3.42,5.03,4.99,3.86,3.57,9.12,5.31,14.27,5.91,14.41,2.02,20.63-2.38,27.04-14.91-2.89,1.93-6.8-1.48-5.04-4.54l.05-.09c1.83-3.24,7.01-1.3,6.35,2.33,6.45-10.33,9.83-21.99,12.32-33.81l.34-1.41c1.21-5.02,2.79-10.77,5.7-15.31-17.75-4.52-35.11-18.31-37.89-37.23-4.51,14.16-10.61,28.01-16.43,41.79-1.8,4.79-2.55,9.94-5.12,14.38-.6,1.03-2.12,.76-2.46-.32-2.32-10.36,4.7-20.22,8.35-29.54,2.98-5.27,11.52-29.34,16.82-29.4-5.95-26.1-13.89-52-21.45-77.77-7.31-34.8-22.21-41.51-53.77-52.47,5.69,29.02,31.68,57.11,17.85,87.55l-.34,.79c-1.41,3.36-2.59,6.74-1.6,10.42,.96,3.57,3.14,6.68,4.89,9.89,9.76,18.16,3.04,39.37-.73,58.28-4.77,22.18-9.48,44.37-14.4,66.52-.97,4.42-1.6,8.97-3.07,13.25-.76,2.21-4.54,2-4.29-.58,.47-5,1.87-9.88,2.9-14.79,6.14-31.79,14.44-63.2,19.72-95.13,3.4-23.63-9.97-27.27-9.47-42.54,1.82-7.81,6.63-14.78,6.35-23.1,1.07-25.48-17.48-46.49-19.77-71.27l-4.04-1.44c-2.02-.72-4.04-1.45-6.05-2.2,10.59,74.11,7.38,149.84,2.08,224.31-1.08,3.44-.05,27.44-4.59,25.31-.23,1.34-.94,2.66-2.49,2.65-14.06,.13-28.13,.35-42.2,.52-6.77-.62-16.06,1.96-21.82-1.94-6.64-1.9-7.41-19.9-9.18-26.31l-.69-4.67c-11.29-76.24-21.39-154.05-13.28-231.05-11.29,.43-13.62,12.62-14.46,21.5-2.09,19.59-14.75,36.46-15.35,56.27-.05,4.81,.86,9.46,2.78,13.88,5.1,10.81,13.91,23.32,7.32,35.39-7.79,9.4-7.12,11.88-4.26,23.49,8.04,38.41,21.4,75.34,34.11,112.37-2.76,14.39-19.37-39.04-20.93-43.07-7.35,3.7-11.37-8.57-2.94-9.45-5.41-18.13-10.4-36.4-14.55-54.87l-.11-.52c-1.83-8.53-5.44-18.53,.65-26.1,15.7-15.88-10.37-33.63-7.08-52.87-2.84,2.11-7.14-.11-7.07-3.65-.13-3.98,5.22-6.02,7.79-2.98,2.65-15.61,11.85-29.23,14.64-44.8l.13-.73c.94-5.5,1.21-11.29,3.91-16.3-3.68,2.39-7.59,4.32-11.62,6.02,7.2,6.01-6.74,11.51-5.59,2.21-39.48,11.43-48.4,27.36-62.9,63.96,2.71-2.63,7.35,.77,5.73,4.13-1.29,3.54-6.93,2.5-6.93-1.27l-.66,1.58c-8.79,21.03-16.79,42.56-20.81,65.06,7.89-1.11,5.88,11.5-1.27,7.94-2.87,20.01-2.91,40.31-2.56,60.48,6.65-3.49,6.85,8.37,.06,4.99,.25,16.53,.61,33.06,.89,49.6,.06,3.52-5.37,3.5-5.46,0-.63-25.4-1.79-50.85-1.24-76.26-.52-44.1,12.16-86.61,31.04-126.11,16.71-45.49,39.79-50.66,82.25-63.89,3.92-5.82,12.29-11.33,19.13-7.67,3.82-6.17,5.76-13.49,8.59-20.06Zm-72.75,158.54c.16-.56,.96-.42,.98,.13,.36,7.14,.04,14.32-.45,21.48-.3,4.38-.66,8.74-.97,13.09-.82,11.46-1.48,22.94-1.98,34.42,.18-.07,.36-.14,.54-.19,.86-.24,1.73-.24,2.59,0,.77,.22,1.44,.59,2.02,1.14l.12,.12c.47,.44,.81,.96,1.01,1.57,.28,.54,.42,1.11,.42,1.72v.15c0,.88-.23,1.7-.67,2.46-.43,.73-1.01,1.31-1.75,1.75-.76,.44-1.58,.66-2.46,.66-.09,0-.19,.02-.28,.02-.66,.03-1.27-.11-1.83-.41l-.09-.03c-.21,5.83-.39,11.66-.52,17.49-.12,5.08-.27,10.16-.37,15.24l-.05,2.54-.09,5.62c-.03,2.31-.02,4.52-.8,6.7l-.09,.25c-.56,1.45-1.01,3.48-2.52,4.29-1.21,.65-2.83,.41-3.53-.85-.58-1.05-.08-2.57,.78-3.28-.02-.05-.04-.09-.06-.14-.13-.39-.33-.75-.45-1.14-.38-1.23-.27-2.55-.28-3.83,0-2.26,.08-4.52,.14-6.78,.13-4.8,.29-9.6,.47-14.4,.64-16.1,1.83-32.2,3.21-48.25l.47-5.42c.62-7.21,1.26-14.42,2.17-21.59,.04-.34,.09-.68,.13-1.03-.49-.24-.94-.58-1.3-.96-1.44-1.51-2.32-3.78-3.14-5.73l-.19-.44c-.89-2.08-1.71-4.19-2.14-6.42l-.04-.21c-.19-.95-.57-2.64,.43-3.1,.53-.24,.86-.07,1.03,.46,.02,.07,0,.15-.03,.21,.42,.64,1.07,1.23,1.48,1.82l1.41,2.01,.69,1.01c.88,1.3,1.82,2.54,2.79,3.76,.77-5.38,1.7-10.73,3.16-15.97Zm57.65,119.81c1.76-1.38,4.62-.63,4.62,1.91s-2.87,3.29-4.62,1.91l-.09-.06-.08-.07c-.96-.75-.99-2.69-.07-3.5l.07-.06c.06-.05,.11-.09,.17-.13Zm-76.61-4.97h.15c.8,0,1.54,.2,2.22,.61,.3,.23,.59,.46,.89,.69,.55,.55,.92,1.2,1.13,1.95l.16,1.17c.02,.61-.1,1.17-.38,1.7-.18,.55-.48,1.02-.91,1.42-.4,.43-.87,.74-1.42,.91-.48,.26-1,.38-1.55,.38h-.15c-.8,0-1.54-.2-2.23-.61-.3-.23-.59-.46-.89-.69-.54-.55-.92-1.2-1.13-1.95-.05-.39-.1-.78-.16-1.17-.02-.61,.11-1.17,.38-1.7,.18-.55,.48-1.02,.91-1.42,.4-.43,.87-.74,1.42-.91,.48-.26,1-.38,1.55-.38Zm200.3-8.14l1.12,.15c1.07,.24,1.94,1.04,2.52,1.94,.31,.48,.47,1.01,.5,1.57,.12,.56,.1,1.12-.08,1.68-.13,.55-.38,1.03-.75,1.43-.13,.2-.28,.38-.45,.55-.35,.59-.88,.97-1.43,1.36-.46,.3-.96,.45-1.5,.48-.35,.09-.71,.09-1.07,0-.54-.03-1.04-.18-1.5-.48-.27-.21-.55-.42-.82-.63-.24-.28-.46-.57-.67-.87-.14-.33-.28-.65-.41-.98-.25-.78-.13-1.48,0-2.26,.02-.13,.06-.25,.1-.38l.09-.25c.25-.65,.38-.87,.82-1.44l.17-.22c.08-.11,.17-.22,.27-.32,.27-.28,.66-.52,.97-.76,.66-.38,1.37-.57,2.13-.57Zm-145.27-2.74h.14c.62,0,1.2,.16,1.74,.47l.7,.54c.43,.43,.72,.94,.89,1.52,.04,.31,.08,.62,.12,.92,.02,.48-.08,.92-.3,1.33-.14,.43-.38,.8-.71,1.11-.31,.33-.68,.57-1.11,.71-.37,.19-.78,.3-1.2,.3h-.13c-.62,0-1.21-.16-1.75-.47l-.7-.54c-.43-.43-.72-.94-.89-1.53-.04-.31-.08-.61-.12-.92-.02-.48,.08-.92,.3-1.33,.14-.43,.38-.8,.72-1.11,.31-.34,.68-.58,1.11-.71,.37-.2,.77-.3,1.19-.3Zm-28.24-1.42c.89,0,1.8,.24,2.53,.76,.71,.51,1.25,1.05,1.6,1.87,.09,.22,.19,.44,.27,.66,.37,.98,.44,1.96-.07,2.92-.49,.93-1.55,1.34-2.5,1.61-.8,.24-1.72,.28-2.52,0-.4-.14-.79-.29-1.15-.51-.67-.42-1.04-.91-1.48-1.52-.35-.6-.53-1.25-.53-1.94s.18-1.34,.53-1.95c.69-1.18,1.96-1.9,3.32-1.9Zm-45.36,.83c1.13,0,2.12,.52,2.8,1.4,.69,.89,.94,2.01,.64,3.12-.32,1.17-1.29,2.2-2.49,2.49-.89,.22-1.62,.21-2.5,.06-.75-.13-1.32-.57-1.9-1.04-.65-.54-.86-1.51-.75-2.3,.1-.79,.47-1.3,1.02-1.77h0s-.21,.15-.21,.15c.08-.07,.15-.14,.23-.21,.03-.04,.05-.09,.07-.14,.32-.54,.74-.96,1.28-1.28,.56-.32,1.16-.49,1.81-.49Zm263.41-12.97c.62-.17,1.24-.17,1.86,0,.46,.11,.86,.32,1.19,.63,.34,.22,.62,.51,.84,.86l.07,.12c.49,.83,.57,1.78,.35,2.71-.26,1.14-1.31,2.18-2.45,2.45h-.04s-.04,.02-.04,.02c-.46,.15-.93,.17-1.39,.06-.47-.02-.9-.16-1.3-.42-.5-.33-.93-.74-1.25-1.25-.26-.4-.39-.83-.42-1.3-.08-.31-.08-.62,0-.92,.02-.47,.16-.9,.42-1.3l.55-.71,.06-.05c.44-.44,.95-.74,1.55-.9Zm-43.08-22.65c5.61,0,5.6,8.71,0,8.71s-5.6-8.71,0-8.71Zm-205.38-1.1c.59-.13,1.18-.11,1.77,.08,.36,.15,.71,.3,1.06,.45l.9,.69c.17,.14,.25,.3,.4,.5l.19,.25c.28,.37,.28,.45,.59,1.25,.21,.76,.21,1.52,0,2.29-.1,.37-.25,.71-.44,1.04-.18,.31-.39,.58-.62,.83l-.12,.12c-.4,.43-.88,.74-1.42,.92-.35,.2-.72,.3-1.12,.3-.59,.13-1.18,.11-1.77-.08-.36-.15-.71-.3-1.06-.45l-.9-.69-.69-.9-.22-.53-.22-.53-.16-1.18c-.02-.61,.1-1.18,.38-1.71,.11-.37,.3-.7,.57-.98,.2-.33,.46-.6,.8-.8,.27-.27,.6-.46,.98-.57,.35-.2,.72-.3,1.12-.3Zm277.45-6.22c.47-.02,.9,.08,1.31,.3,.14,.05,.28,.11,.41,.18,.52,.3,.93,.71,1.23,1.23,.25,.39,.39,.82,.41,1.27,.09,.41,.09,.83-.03,1.24l-.04,.12c-.09,.34-.23,.65-.42,.94-.02,.03-.04,.07-.07,.1-.29,.45-.67,.83-1.14,1.1-.52,.3-1.08,.45-1.69,.46-1.21,0-2.25-.65-2.89-1.66-.09-.14-.14-.32-.2-.47-.06-.14-.15-.31-.19-.47-.16-.61-.16-1.22,0-1.82,.11-.45,.31-.83,.61-1.17,.24-.37,.56-.67,.96-.88,.49-.29,1.02-.44,1.59-.47h.15Zm-236.85-4.26c.59-.16,1.18-.17,1.77-.04l.15,.04c.47,.11,.88,.33,1.23,.64,.39,.26,.7,.6,.93,1.02,.33,.56,.49,1.17,.49,1.82,0,.65-.17,1.26-.49,1.82-.32,.54-.75,.97-1.3,1.29l-.47,.23c-.39,.25-.81,.38-1.27,.4-.3,.08-.61,.08-.91,0-.31,0-.6-.08-.86-.23-.29-.08-.54-.23-.75-.44-.37-.24-.66-.56-.88-.95l-.35-.82-.12-.91,.12-.9,.19-.45c.17-.61,.48-1.14,.93-1.59,.45-.45,.98-.75,1.59-.93Zm212.2-7.22c.62-.2,1.24-.22,1.87-.09,.42,0,.81,.11,1.18,.32,.4,.11,.74,.31,1.03,.6,.51,.33,.91,.77,1.2,1.31l.47,1.12c.28,.72,.18,1.79,0,2.52-.14,.6-.41,1.12-.82,1.57-.21,.35-.48,.62-.83,.83-.4,.36-.85,.62-1.37,.77l-.14,.04h-.05s-.02,.02-.03,.02c0,0-.01,0-.02,0-.21,.05-.42,.08-.63,.09-.62,.14-1.24,.11-1.87-.09-.37-.15-.74-.31-1.11-.47-.32-.24-.63-.48-.95-.73-.24-.32-.49-.63-.73-.94-.34-.54-.53-1.12-.55-1.74-.11-.42-.11-.83,0-1.24,0-.42,.11-.81,.32-1.18,.19-.58,.51-1.08,.97-1.51,.32-.25,.63-.49,.95-.73,.37-.16,.74-.32,1.11-.47Zm-272.91-15.33c.65-.17,1.29-.17,1.94,0l.87,.36c.43,.23,.77,.54,1.02,.94,.33,.35,.54,.77,.65,1.24,.25,.65,.22,1.68,.02,2.35-.23,.75-.58,1.35-1.12,1.92-.9,.93-2.29,1.2-3.52,.92-.34-.08-.66-.23-.95-.41-.93-.57-1.55-1.58-1.55-2.68,0-.12,0-.24,.03-.36-.06-.24-.08-.5-.07-.76l.13-.97v-.02c.18-.61,.49-1.14,.94-1.59,.42-.41,.9-.71,1.45-.89l.14-.04h.02Zm322.88-96.12c-1.17-9.59-5.56-19.9-18.97-14.27l-.99,.37c-3.32,1.26-7.18,2.91-9.2,5.81-1.39,2-.92,5.87-1.11,8.21-.87,7.59-.4,15.16,.51,22.71,1.17,17.7-2.55,36.05-9.95,52.14,7.41,12,17.34,23.19,30.87,28.2,.57-13.64,3.24-27.04,6.08-40.35l.11-.58c1.14-6,1.71-12.17,5.65-17.16,8.02-8.71,19.05-3.78,24.32-17.77-1.11-.56-.5-2.48,.84-2.11,4.63,.82,5.38-7.76,2.21-9.83-3.3-2.01,.02-5.73-1.38-8.41-.78-1.15-2.47-1.19-3.24-2.52-2.03-4.9,8.13-8.04-3.82-13.57-2.45-.87-5.18-.33-7.65-.34-3.63,.34-6.51,2.9-9.83,3.7,3.61,9.36-5.51,18.38-13.73,10.9-4.48,4.23-9.49,13.89,1.4,9.39,5.33-3.56,9.92-8.16,16.1-10.35l.13-.04c2.3-.75,12.34-5.64,11.85-1.41-3.76,3.63-9.97,3.59-14.33,6.54-6.04,2.79-9.91,9.57-17.14,9.48-1.67,10.13,9.82,3.97,14.1,1.17l1.19-.64c6.04-3.26,12.16-6.28,19.2-6.32,1.94-.01,1.93,2.98,0,3.01-9.17,.06-16.64,5.79-24.32,10.06-.76,5.91,7.9,3.33,11.18,2.45,3.44-.48,8.98-4.21,11.99-2.24,1.18,3.03-4.01,2.81-5.82,3.72,8.25,3.96,1.02,6.46-1.19,.37l-.65,.22c-5.52,1.86-18.91,5.68-17.32-3.68-2.02,.89-4.49,1.43-6.72,.93-5.57,8.24-14.45,5.05-1.54-.57-2.91-1.35-3.88-6.58-1.09-8.53-10.16-.62-2.62-11.29,1.59-14.84-.4-.4-.78-.81-1.14-1.23-2.43,1.16-4.98,1.86-7.7,2.11-2.61,.23-3.19-4.21-.62-4.57,2.76-.39,5.3-1.13,7.73-2.51,3.68-1.59,4.94,5.24,8.63,5.49,2.01,.4,3.37-1.37,3.77-3.13Zm-85.57,88.22c.89,0,1.68,.37,2.33,.96,.65,.59,.92,1.48,.96,2.33,.02,.45-.08,.88-.28,1.27-.13,.41-.36,.76-.68,1.06-.6,.59-1.48,.96-2.33,.96-.89,0-1.68-.37-2.33-.96-.65-.6-.92-1.48-.96-2.33-.02-.45,.08-.87,.28-1.27,.12-.37,.32-.69,.59-.97l.09-.09c.6-.6,1.48-.96,2.33-.96Zm26.97-20.3h.14c.75,0,1.45,.2,2.1,.57,.28,.22,.57,.43,.84,.65,.52,.52,.87,1.13,1.07,1.84,.2,.74,.2,1.48,0,2.21-.07,.42-.23,.83-.48,1.19-.37,.61-.86,1.1-1.47,1.47-.64,.37-1.33,.56-2.07,.56-.74,0-1.43-.19-2.07-.56-.62-.36-1.1-.86-1.47-1.47-.25-.36-.41-.77-.48-1.19-.2-.74-.2-1.48,0-2.21,.18-.66,.5-1.23,.96-1.73l.11-.11c.38-.41,.82-.69,1.34-.86,.46-.24,.94-.36,1.46-.36Zm-205.81,.23c.32-.08,.63-.08,.95,0,.47,.02,.91,.16,1.32,.42,.24,.19,.48,.37,.72,.56l.21,.25c.45,.54,.46,.64,.8,1.46,.14,.46,.16,.93,.06,1.39,0,.31-.08,.6-.24,.87-.09,.3-.23,.55-.45,.77-.15,.26-.36,.47-.62,.62-.33,.3-.73,.51-1.18,.62l-.92,.12c-.12-.02-.24-.03-.36-.05-.14,0-.28-.02-.42-.05l-.14-.03-.13-.03c-.17-.05-.33-.11-.49-.2-.3-.09-.56-.24-.78-.46-.38-.25-.69-.58-.92-1l-.06-.14c-.08-.15-.15-.3-.2-.46-.14-.26-.22-.53-.22-.83-.09-.39-.08-.78,.02-1.17l.04-.13,.33-.78c.17-.27,.35-.54,.58-.75,.14-.12,.48-.39,.67-.52l.12-.08c.41-.26,.85-.4,1.32-.42Zm-51.59-6.12c.62-2.43,3.8-3.19,5.53-1.46,1.73,1.73,.97,4.92-1.46,5.54l-.28,.07c-2.34,.6-4.46-1.52-3.86-3.87l.07-.27Zm293.69-19.8c-.02-.24,.29-.33,.44-.18,2.06,1.85,3.38,4.07,5.88,5.5,2.52,1.44,5.11,1.32,7.73,2.25,.89,.32,.89,1.51,0,1.82-4.96,1.73-13.68-4.14-14.06-9.39Zm-233.22-.38c.55-.17,1.11-.2,1.66-.07,.38,0,.73,.09,1.05,.28,.36,.1,.66,.28,.92,.54,.31,.18,.56,.44,.75,.75,.37,.4,.62,.87,.74,1.41l.15,1.11-.15,1.11c-.14,.33-.28,.66-.42,.99l-.38,.52c-.31,.41-.36,.42-1.11,.98-.48,.3-1,.47-1.55,.49-.37,.1-.74,.1-1.11,0-.37,0-.72-.09-1.05-.28-.35-.1-.66-.28-.92-.54-.45-.3-.81-.68-1.07-1.17-.14-.33-.28-.66-.42-.99l-.15-1.11,.15-1.11v-.04c.2-.69,.56-1.3,1.06-1.81l.83-.64c.32-.21,.66-.32,1.01-.42Zm199.74,.83c1.18-.33,2.49,.02,3.35,.89,.87,.87,1.21,2.17,.89,3.35-.32,1.16-1.25,2.09-2.41,2.41-.35,.09-.7,.15-1.05,.13-.6,0-1.15-.15-1.67-.45l-.67-.52c-.33-.3-.55-.65-.68-1.07-.21-.39-.3-.82-.29-1.28v-.08c-.02-.16,0-.33,.06-.48,0-.17,.03-.33,.07-.49,.31-1.16,1.25-2.09,2.4-2.4Zm-255.52-11.59c.38-.01,.74,.06,1.07,.24,.35,.11,.64,.3,.89,.57,.27,.25,.46,.55,.57,.89,.18,.33,.25,.68,.24,1.07,0,.5-.13,.97-.38,1.4-.15,.19-.29,.38-.44,.56-.34,.35-.75,.58-1.22,.71l-.27,.09c-.4,.15-.8,.15-1.22,.1-.44-.06-.85-.18-1.21-.45-.35-.21-.63-.48-.83-.84l-.24-.56c-.05-.19-.07-.47-.09-.67,0-.03,0-.05,0-.09,0-.17,.05-.57,.09-.74,.09-.35,.29-.68,.51-.97,.19-.29,.44-.53,.76-.7l.03-.02,.03-.02c.1-.07,.2-.14,.3-.21,.43-.25,.89-.38,1.39-.38Zm220.96-3.04c.68,0,1.32,.18,1.91,.52,.02,0,.04,.02,.06,.03,.57,.33,1.01,.78,1.35,1.35,.34,.59,.51,1.22,.51,1.9s-.17,1.31-.51,1.9c-.33,.57-.78,1.01-1.35,1.35-.02,.01-.04,.02-.06,.03-.59,.34-1.23,.51-1.91,.52-.68,0-1.32-.18-1.91-.52-1.15-.68-1.88-1.94-1.88-3.27s.72-2.6,1.88-3.27c.59-.34,1.23-.52,1.91-.52Zm-177.7-4.95h.12c.45-.02,.88,.07,1.27,.29,.41,.13,.76,.36,1.06,.68l.62,.52,.18,.15s.06,.05,.09,.08c.42,.42,.71,.92,.87,1.49,.05,.33,.09,.65,.13,.98,.09,.86-.41,1.73-.97,2.34-.3,.32-.66,.55-1.07,.68-.39,.21-.82,.3-1.28,.28-.93-.08-1.81-.28-2.48-1-.08-.09-.15-.18-.23-.27l-.53-.62c-.41-.41-.69-.89-.84-1.45-.04-.3-.08-.59-.12-.88-.04-.88,.39-1.7,.96-2.32,.53-.58,1.43-.93,2.21-.96Zm-21.6-9.01c4.45,0,4.44,6.9,0,6.9s-4.44-6.9,0-6.9Zm223.74-9.68h.14c.74,0,1.42,.19,2.06,.56l.83,.64c.5,.51,.86,1.11,1.05,1.81,.05,.36,.09,.73,.15,1.09,.02,.57-.1,1.09-.36,1.58-.16,.51-.45,.95-.84,1.32-.37,.4-.81,.68-1.32,.84-.49,.26-1.01,.38-1.57,.35-.74,0-1.43-.19-2.07-.56-.28-.21-.55-.43-.83-.64-.47-.47-.8-1.02-1-1.65l-.05-.16-.15-1.09c-.02-.56,.1-1.09,.35-1.58,.16-.51,.45-.95,.84-1.32,.37-.4,.81-.68,1.32-.84,.45-.24,.93-.36,1.44-.36Zm-20.04-12.93c.4-.01,.77,.07,1.11,.25,.36,.11,.66,.32,.92,.59,.55,.44,.89,1.32,.89,2.04s-.34,1.6-.89,2.04c-.36,.36-.78,.6-1.27,.74l-.77,.1c-.74,.03-1.5-.36-2.03-.84-.11-.1-.21-.2-.32-.29-.48-.45-.69-1.11-.72-1.75-.01-.34,.06-.65,.21-.95,.1-.31,.27-.57,.51-.8,.11-.09,.21-.19,.32-.29,.58-.54,1.25-.8,2.03-.84Zm126.99-23.02c2.81-3.43,1.17-5.86-3.05-5.02-7.28,.99-14.13,5.59-20.54,8.89-7,3.7-14.21,6.75-21.34,10.22,2.95,1.81,5.14,4.64,6.81,7.87,3.34-2.54,7.61-3.75,11.78-3.91,7.56-7.24,20.08-8.9,26.35-18.05Zm-332.18,11.37c.76,0,1.48,.18,2.15,.54l.14,.08,.92,.71c.45,.41,.76,.9,.94,1.46,.28,.54,.41,1.13,.39,1.75,.02,.62-.11,1.21-.39,1.75-.18,.56-.5,1.05-.94,1.46-.25,.33-.58,.59-.97,.78-.36,.15-.72,.3-1.09,.46-.41,.13-.88,.15-1.32,.17-.8,0-1.54-.2-2.24-.61l-.9-.69c-.43-.4-.74-.88-.92-1.43-.25-.49-.38-1.01-.38-1.56v-.15s0-.07,0-.11c.05-.4,.11-.8,.16-1.21,.14-.59,.41-1.11,.81-1.55,.1-.2,.24-.37,.42-.51,.56-.57,1.23-.95,2-1.17,.4-.05,.8-.11,1.21-.16Zm198.54-11.34h.13c.58,0,1.11,.15,1.61,.43,.22,.17,.43,.33,.65,.5,.4,.4,.67,.87,.82,1.41l.12,.85c.01,.44-.08,.85-.28,1.23-.13,.39-.35,.74-.66,1.03-.29,.31-.63,.53-1.03,.66-.38,.2-.79,.29-1.23,.27-.57,0-1.11-.15-1.61-.44-.21-.16-.43-.33-.65-.5-.36-.36-.62-.79-.78-1.27l-.04-.13-.12-.85c-.02-.44,.07-.85,.27-1.23,.13-.4,.35-.74,.66-1.03,.29-.31,.63-.53,1.03-.66,.34-.18,.71-.27,1.1-.28Zm-173.53-4.64h.15c.85,0,1.64,.22,2.38,.65,.32,.24,.63,.49,.95,.74,.59,.59,.99,1.28,1.22,2.08l.17,1.25c.03,.65-.11,1.25-.41,1.82-.19,.59-.51,1.09-.98,1.52-.42,.46-.93,.78-1.51,.97-.56,.3-1.16,.43-1.81,.41-.85,0-1.64-.21-2.38-.64-.32-.24-.63-.49-.95-.74-.58-.59-.98-1.29-1.21-2.08l-.17-1.25c-.03-.65,.11-1.25,.41-1.82,.19-.58,.51-1.09,.97-1.51,.43-.46,.93-.79,1.52-.98,.52-.27,1.07-.41,1.67-.41Zm158.44-11.77c.39-.1,.78-.1,1.17,0,.58,.02,1.13,.2,1.63,.52l.89,.68s.03,.03,.04,.04c.54,.54,.91,1.18,1.11,1.91l.15,1.15c.02,.6-.1,1.15-.37,1.67-.16,.49-.43,.92-.79,1.3l-.14,.14c-.4,.43-.87,.73-1.41,.91-.34,.2-.71,.3-1.11,.3-.58,.13-1.17,.11-1.75-.08-.35-.15-.7-.3-1.05-.44l-.11-.07c-1.32-.72-2.14-2.24-2.14-3.72s.82-3.01,2.14-3.73c.04-.02,.07-.04,.11-.06,.5-.32,1.05-.5,1.63-.52Z"/>
  <path class="cls-1" d="M236.8,35.11c-22.88-6.72-101.56,.17-103.51,1.62-3.18,2.65-18.67,11.04-21.08,12.96-21.79,23.1-1.02,57.41-2.61,85.29,.1,9.89-4.11,18.91-6.05,28.42-.82,4.99-.64,10.14,1.96,14.61,4.57,8,14.21,9.62,22.05,12.84,3.9,1.68,7.55,4.06,10.89,6.67,22.5,19.91,35.03,33.55,67.86,29.06,.17,1.57,1.56,3.11,3.28,2.41,4.03-1.64,8.03-3.38,12.1-4.94,.87,2.1,3.36,2.69,5.06,.84h0c7.53-6.09,12.31-14.45,15.87-23.38,2.49-5.16,4.53-10.54,6.08-16.08,.18-.63,.15-1.19,0-1.67,7.18-24.76,9.84-50.86,7.95-76.56-.38-5.3-1.38-10.68-1.14-16,.22-4.81,2.29-9.36,3.87-13.85,8.15-19.05-4.31-36.24-22.57-42.24Z"/>
  <path class="cls-2" d="M239.68,4.18l.24-.19c2.64-2.07,5.12-4.78,8.84-3.77,3.05,.83,4.59,3.36,5.25,6.41,.93-.97,1.83-1.98,2.71-3.02,2.4-2.83,7.75-1.36,8.46,2.24,1.45,7.25,1.52,14.63,.11,21.9-.21,1.1-.47,2.2-.76,3.28,1.61-2,3.1-4.08,4.44-6.28,1.45-2.38,4.73-1.2,4.95,1.34,.06,.66,.09,1.33,.1,2,1.02,.36,1.73,1.41,1.46,2.71-1.49,7.11-3.38,14.13-5.64,21.03,3.65-1.93,7.73-3.08,11.58-1.72,6.11,2.17,7.57,8.84,6.37,14.58-1.5,7.22-6.23,13.26-12.32,17.22-.72,1.09-1.44,2.18-2.12,3.3-.01,3.15-.59,6.3-1.74,9.22-1.3,3.28-3.6,6.12-6.42,8.28-.99,2.16-3.62,3.74-5.93,3.3l-.12-.03h0c.59,2.12,1.1,4.26,1.54,6.4,3.41,16.58,1.68,33.84-1.43,50.33l-.1,.53c-2.79,14.67-6.05,29.87-12.37,43.5-5.72,12.32-15.41,23.15-29.26,25.84-16.29,3.16-34.33-1.85-48.34-10.21-5.08-3.03-.42-11.02,4.63-7.94,7.3,4.44,15.23,7.55,23.62,9.18,7.84,1.52,16.61,2.04,24.12-1.12,10.47-4.4,16.69-15.15,20.63-25.27,2.32-5.97,4.06-12.14,5.67-18.32,2.08-7.96,4.03-15.97,5.49-24.07,2.72-15.11,3.6-30.79,.72-45.94-.92-4.83-2.21-9.7-3.9-14.37-.27-.33-.52-.7-.74-1.1-1.77-3.1-2.99-6.62-4.3-9.97-1.15-2-2.41-3.92-3.74-5.8-2-1.53-3.9-3.18-5.64-4.97,5.06-3.28,9.52-7.38,12.73-12.6,.53-.86,.19-1.69-.43-2.15-2.57,3.21-5.88,5.93-9.38,8.33-1.79,1.53-3.72,2.91-5.73,4.15-1.44,.29-2.9,.48-4.31,.64-4.03,.46-8.07,.29-12.08-.25-8.66-1.16-45.29-11.25-60.73-7.32-3.22,.82-4.73,3.7-6.43,6.41-1.48,2.36-3.36,4.31-5.61,5.91l-.25,.18c-4.41,3.05-13.27,12.71-16.99,21.32-4.81,11.13-9.43,44.47-7.3,44.75,5.56,.75,8.64,3.68,13.17,6.82,.3,.21,.12,.76-.26,.62-2.99-1.08-6.23-1.72-9.36-2.24-2.84-.48-5.82-.56-8.56,.45-4.2,1.56-6.25,5.08-7.09,9.05-.33,1.55-.47,3.18-.49,4.78v.47c0,5.06,.94,10.67,4.62,14.4,1.56,1.59,3.68,2.66,5.9,2.95,2.43,.32,3.92-.77,6.15-1.34,2.57-.65,4.57,1.04,4.33,3.24,.54,.47,1.07,.98,1.59,1.49h0s0,0,0,0c.34,.15,.67,.36,.96,.61,.48,.41,.89,.86,1.21,1.34,.72,.14,1.42,.54,1.99,1.28,1.17,1.51,2.26,3.04,3.26,4.6,1.8,1.91,3.59,3.83,5.36,5.78,2.13,2.34,4.2,4.74,6.28,7.12l1.04,1.19c1.13,1.28,2.25,2.56,3.37,3.84l.33,.38c1.13,1.26,1.99,2.2,2.11,4.01,.09,1.35-1.37,2.26-2.57,1.96-1.85-.48-2.71-1.93-3.82-3.38l-1.68-2.15-1.58-2.03c-.78-1.01-1.57-2.02-2.36-3.02-.24,1.85-2.2,3.35-3.98,3.43l-.42,.02c-4.2,.14-9.3-.45-12.5-3.41-1.44,1.45-3.23,2.59-5.43,3.28-5.01,1.56-10.12-1.2-12.15-5.4-3.92,1.68-8.36,2.02-12.6,.78-2.45-.72-3.29-3.77-1.59-5.63l.08-.08,.02-.02c-.35-.46-.55-1.02-.58-1.63-.04-.74,.5-1.53,.39-2.22-.42-2.64-4.72-.68-6.09-.11-.26,.11-.51,.16-.73,.17-2.11,.62-4.41-2.16-3.3-4.45,2.48-5.12,4.89-10.28,7.4-15.39-.32,.11-.64,.21-.96,.29-4.51,1.16-9.97-1.06-8.93-6.49,.24-1.28,1.4-2.15,2.54-2.54,2.23-.77,3.91-.21,5.63-.93,1.94-.81,3.96-2.28,5.67-3.67,1.82-1.48,3.39-3.15,4.78-4.95,.56-2.62,1.52-5.13,3.06-7.29,.09-.13,.19-.26,.29-.38-9.88-2.36-8.59-12.07-12.94-20.69l-.37-.71c-2.96-5.76-5.54-12.26-4.05-18.82,.27-1.16,.65-2.27,1.15-3.31-.79,.1-1.59,.19-2.38,.28-1.82,.21-3.67-2.14-2.94-3.86,.38-.9,.8-1.78,1.25-2.62,1.26-2.34,2.8-4.46,4.62-6.38-3.06-.08-6.11-.08-9.14-.43-2.85-.33-5.85-1.89-5.77-5.18,.09-3.14,2.84-5.51,5.4-7.05,2.51-3.34,5.7-6.12,9.3-8.19-.71-.16-1.44-.28-2.17-.35l-.37-.03c-2.06-.16-3.91-.73-5.77-1.59-1.67-.77-1.64-3.11-.55-4.28,3.53-3.81,8.81-2.57,12.93-.39-.29-.36-.6-.71-.94-1.05l-.21-.2c-2.02-1.88,1.01-4.9,3.03-3.03,.64,.59,1.21,1.24,1.71,1.92l.05-.1c2.66-5.4,6.55-10.23,11.16-14.1l1.08-.9c8.3-6.94,10.86-10.23,21.9-9.2-.47-2.01-.43-4.26-.32-6.12v-.25c.44-6.98,3.01-15.33,9.81-18.46,1.77-.81,3.77,.51,3.3,2.54-.33,1.43-.73,2.83-1.23,4.19,1.48-1.56,3.08-3.02,4.76-4.37,6.87-5.48,16.05-10.19,25.09-8.65,4.96,.85,8.86,3.97,13.01,6.57,4.18,2.62,8.84,4.17,13.73,4.73,6.83,.79,13.69,0,20.45-1.25,4.64-2.02,9.15-4.4,13.55-6.95,2.7-1.57,5.34-3.29,7.82-5.18ZM118.36,155.72c1.45-.37,3.07-.37,4.52,0,3.74,.94,7.23,4.07,7.44,8.03,.1,1.79-1.34,3.49-3.01,3.95-1.89,.52-3.52-.4-4.62-1.88-1.18-1.58-1.48-3.3-2.93-4.74l-.33-.33c-1.23-1.18-3.1-2.7-4.81-2.43-.25,.04-.44-.3-.18-.44,1.39-.76,2.31-1.74,3.92-2.15Zm19.45-18.61c.66-.54,1.53,.09,1.22,.87l-.02,.06c-.78,1.65,.14,3.59,1.09,4.97,.82,1.19-.73,2.33-1.82,1.82-3.05-1.45-2.9-5.75-.47-7.71Zm11.17-49.64c-.06-.4,.48-.57,.62-.17,2.28,6.62,2.93,12.49,2.56,19.49l-.03,.62c-.4,6.74-1.58,13.88-5.67,19.42-.94,1.28-2.88,.53-2.57-1.08,1.25-6.44,3.66-12.56,4.6-19.08,.98-6.82,1.42-12.38,.49-19.2Zm-21.3,24.07c.33-1.77,3.05-3.59,4.43-1.81,.46,.6-.08,1.34-.64,1.57-.52,.21-.99-.08-1.5,.03-.41,.08-.72,.34-.92,.7l-.04,.08c-.4,.77-1.46,.2-1.32-.56Zm-1.11-14.08c.98-1.81,3.22-2.96,5.14-1.83,.63,.37,.38,1.46-.39,1.42l-.46-.02c-1.37-.05-2.74-.02-3.89,.84-.26,.19-.54-.17-.41-.42Zm3.43-49.33c-5.47-2.46-10.91-.24-15.38,3.23-.37,.29-.55,.62-.59,.96,2.98-1.16,6.16-1.92,9.19-2.55,2.48-.51,4.99-.86,7.5-1-.14-.25-.37-.47-.72-.63Z"/>
  <path class="cls-2" d="M206.92,196.02c-2.88-1.17-5.44-3.13-7.32-5.63-.65-.87-.82-1.79-.68-2.63,.15-.95,.71-1.8,1.47-2.38,.76-.58,1.72-.86,2.64-.71,.8,.13,1.6,.57,2.24,1.48l.13,.18c1.11,1.51,2.57,2.75,4.22,3.55,1.6,.77,3.38,1.13,5.23,.92,3.52-.4,5.94-2.3,8.52-4.89,.32-.33,.64-.66,.96-1,.2-.31,.48-.51,.8-.61,.35-.12,.74-.11,1.1,.02,.35,.12,.66,.35,.86,.66,.2,.29,.31,.65,.27,1.06-.24,2.68-1.64,5.07-3.62,6.95-2.21,2.09-5.14,3.53-7.89,4.03-3.04,.56-6.13,.16-8.93-.99Zm10.37-41.33c3.23,1.96,8.16,6.55,4.68,11.42-4.09,4.29-9.98-.63-12.89-2.86-2.69-1.73-5.72,2.71-3.22,4.73,20.98,15.54,29.49-12.78,13.06-15.6-1.81-.31-2.48,1.7-1.63,2.31Zm-37.59-18.07c.36-4.43,7.11-5.44,7.78-1.05,.6,3.93-.11,7.54-1.88,11.08-1.69,3.38-5.94,1.8-6.26-1.27-.43-4.12,.14-5.99,.36-8.75Zm51.38-1.96c.94-1.23,2.3-2.07,3.93-1.6,5.08,1.49,3.59,8.71,1.8,12.22-.97,1.91-4.11,2.39-5.53,.71-2.31-2.74-3.42-8.21-.48-10.92,.08-.14,.17-.28,.28-.42Zm-45.54-17.43l.8-.14c2.49-.43,5.58-.84,7.33,1.16,.93,1.06,1.25,3.03,0,4.04-2.21,1.78-4.64,1.09-7.28,1.24-2.18,.12-4.27,.49-6.37,1.08-4.6,1.32-8.35,3.72-12.28,6.35-.52,.35-1.04-.31-.8-.8,2.27-4.44,6.66-8.1,11.07-10.32,2.35-1.19,4.92-2.17,7.52-2.62Zm40.91-1.99l.61,.13c6.69,1.4,15.38,4.19,18.55,10.77,.12,.93,0,1.13-.11,1.26l-.03,.04c-.09,.11-.15,.26-.56,.39-.11-.03-.23-.06-.34-.09-1.45-.38-2.6-.9-3.71-1.45l-1.21-.59c-1.4-.69-2.81-1.35-4.31-1.84-3.19-1.04-6.48-1.78-9.81-2.17-.72-.08-1.42-.33-1.97-.75-.52-.4-.92-.95-1.1-1.68-.24-.94-.17-1.66,.34-2.51,.38-.64,.93-1.08,1.55-1.34,.64-.26,1.37-.32,2.09-.18Z"/>
</svg>