<?xml version="1.0" encoding="UTF-8"?>
<svg id="Capa_1" data-name="Capa 1" xmlns="http://www.w3.org/2000/svg" viewBox="0 0 405 599">
  <defs>
    <style>
      .cls-1 {
        fill: #fff;
      }

      .cls-1, .cls-2 {
        fill-rule: evenodd;
      }
    </style>
  </defs>
  <path class="cls-1" d="M52.93,407.43c1.86-5.11-.85-10.22-2.36-15.16-5.35-17.16-11.18-34.32-19.44-50.33-3.13-5.35,2.02-11.92,7.98-10.41,10.21,1.43,20.74,.29,30.96-.34,3.74-9.7,13.72-13.73,21.58-19.32,8.92-5.58,17.59-11.99,26.86-16.88,.52-4.62,6.1-5.77,9.52-2.46,9.39-5.86,20.64-4.77,30.71-8.6,7.65-12.39,8.22-25.42,10.24-37.38,.88-5.21-.06-10.24,3.5-14.89,11.93-16.83,59.07-24.12,76.44-14.15,9.36-5.85,9.58,4.75,11.07,11.29,1.65,3.27,2.54,6.98,2.27,10.88,10.05,21.05,33.04,30.56,53.63,38.27,2.58-2.49,6.27-2.18,8.73-.11,17.85,3.89,35.17,10.73,50.12,21.41,16.99,4.98,28.95,18.84,37.6,33.69,.95,1.57,1.18,3.16,.9,4.63,26.6,39.1,39.3,85.92,41.08,133.2,17.11,10.3-8.13,102.78-14.01,121.98,0,0-.01,0-.02,0-3.81,6.77-8.14,26.08-17.68,24.58-6.54,7.42-16.97,5.96-25.85,6.53,1.45,5.56,.74,11.93-.98,17.43-2.04,6.54-12.03,6.77-13.44-.37-88.43,17.23-179.15,3.48-268.57,6.07-25.85,.18-51.71,.99-77.5,2.83-3.63,.26-7.31-3.46-7.07-7.09,5.55-59.16,10.75-136.99,16.95-195.57,1.47-13.36,2.63-26.87,6.78-39.72Z"/>
  <path class="cls-2" d="M258.53,221.16c-.25-.69-1.29-.6-1.31,.18-.41,16.63,3.72,36.96,17,48.2,6.81,5.77,15.82,8.41,24.09,11.44l.93,.35,14.62,5.46c3.88,1.45,8.06,3.68,11.48,1.63-2.77,6.89-5.1,13.97-8.47,20.61-4.2,8.27-9.28,15.83-15.49,22.71-24.62,27.25-63.6,35.56-98.57,27.58-18.01-4.11-35.53-11.9-47.82-26.12-9.34-10.8-14.7-25.3-15.97-39.61,.37,.06,.76,.06,1.15-.03,4.43-.97,8.89-3.35,12.79-5.68l.38-.22c3.75-2.26,7.65-4.85,10.34-8.37,1.78-2.33,3.6-7.28,5.47-14.87,.76-4.28,1.48-12.8,1.36-17.12-.01-.41-1.82-.65-2.01-.22-1.67,3.67-2.21,11.74-3.5,15.56l-.26,.76c-1.38,3.99-2.55,8.85-5.4,12.07-5.35,6.06-13.43,8.62-20.63,11.66-.52-6.85-11.42-6.69-11.28,.45,0,.39,.03,.77,.04,1.16-.86,.47-1.69,1.02-2.46,1.54l-.75,.51c-2.85,1.95-5.73,3.8-8.77,5.45-5.89,3.2-12.12,5.73-18.15,8.64-6.1,2.94-11.81,6.44-17.13,10.63-2.5,1.97-4.9,4.06-7.18,6.29l-.62,.61c-2.17,2.16-4.98,4.58-6.22,7.43-.27,.63-1.63,2.08-2.37,2.13-11.46,.75-22.89,1.82-34.27,3.41-2.95,.41-4.11,1.94-3.02,4.4,3.74,8.47,18.4,42.28,22.3,51.35-.46,6.67,.16,14.51-.25,21.18-.6,9.73-1.39,19.46-2.33,29.16-3.37,34.71-8.48,69.25-13.1,103.81-2.31,17.29-4.42,34.61-6.5,51.94-1.05,8.76-1.94,17.52-2.63,26.31-.29,3.66-.54,7.33-.77,11l-.2,3.25c-.27,4.09-.9,8,1.63,11.52,1.15,1.59,3.76,2.49,5.27,.68,1.89-2.28,2.6-3.98,2.78-6.97,.14-2.29,.17-4.59,.28-6.88,.22-4.97,.51-9.93,.84-14.89,.66-9.92,1.41-19.83,2.29-29.73,3.06-34.72,8.88-69.18,12.75-103.81,1.95-17.46,3.34-34.95,4.07-52.51,.37-8.77,.5-17.53,.41-26.31-.03-3.28-.19-6.54-.41-9.8,5.8,13.21,11.9,26.3,18.27,39.21l1.51,3.06c4.04,8.16,8.19,16.35,13.04,24.04l.83,1.31c1.97,3.12,4.65,8.05,8.24,9.04,2.5,.69,5.55,.2,8.11,.15,2.54-.05,5.09-.06,7.63-.16,2.85-.11,5.57-.49,8.32-1.24,.46-.12,.89-.26,1.28-.43,2.77,4.55,7.49,8.02,12.31,10.04,3.86,1.62,7.91,2.73,11.96,3.75l1.43,.36c4.35,1.09,9.32,1.6,11.77,5.81l.57,.97c1.82,3.1,3.57,5.83,6.58,8.06,3.25,2.4,7.09,3.9,10.92,5.07,3.92,1.2,7.94,2.12,11.92,3.1l1.08,.27c2.63,.66,5.28,1.27,7.9,1.98,1.12,.31,2.25,.62,3.34,1,1.28,.44,2.21,1.13,3.22,1.88,.91,3.18,4.79,4.91,7.98,4.69,1.68-.12,3.18-.69,4.55-1.52,2.39,2.04,5.02,3.86,7.45,5.75,3.41,2.65,6.83,5.27,10.27,7.87,7.1,5.36,14.24,10.65,21.47,15.84,12.82,9.21,25.92,17.99,39.25,26.46,5.55,3.53,11.15,7.05,16.8,10.49l-.6,.22-1.19,.45c-2.83,1.06-5.98,2.77-6.52,6.07-.43,2.62,1.03,4.43,3.61,4.75,3.07,.38,5.46-1.79,7.37-3.87,.84-.91,1.79-1.77,2.6-2.71,.33-.39,.58-.83,.8-1.29,5.57,3.29,11.21,6.48,16.93,9.45l1.43,.74c14.19,7.28,28,15.25,42.31,22.32,3.73,1.84,8.28,3.84,13.03,5.2-1.26,4.89-1.24,10.27-1.27,15.23-.03,4.84,7.64,4.82,7.48,0l-.08-2.33c-.14-3.91-.37-7.97-1.29-11.78,13.98,2.33,27.94-2.73,30.54-4.24,2.87-1.67,5.48-4.35,7.64-6.83,4.64-5.32,7.86-11.69,10.71-18.1,6.12-13.73,10.45-28.41,13.62-43.09,11.68-54.12,6.66-112.04-12.31-163.91-4.74-12.96-10.34-25.64-16.75-37.85l-.8-1.51c-6.4-12.08-13.51-24.12-22.55-34.4-9.41-10.71-21.02-19.04-33.66-25.5-6.17-3.15-12.51-5.89-19-8.31-1.04-.39-2.09-.74-3.14-1.07-6.76-4.32-14.96-8.46-23.17-8.29-.56,.01-1.01,.22-1.35,.54-.4,.07-.79,.15-1.19,.27-.88,.25-1.8,1.22-1.67,2.2l.04,.33c.02,.16,.05,.32,.1,.47-.29,.04-.58,.11-.86,.21-7.85-2.22-15.58-5.62-23.24-8.37l-1.74-.62c-6.42-2.25-13-4.46-18.26-8.93-5.24-4.44-9.18-10.19-12.02-16.41-3.51-7.66-5.08-15.96-7.96-23.82ZM101.33,625.15c-1.55-1.16-3.39,.19-3.97,1.62-1.91,4.71-.97,12.03,1.73,16.2,2.79,4.32,9.47,2.61,9.63-2.61,.17-5.45-2.99-11.93-7.38-15.2Zm-16.06-130.09c-.14-.61-1.09-.61-1.23,0-1.29,5.53-1.26,11.48-1.64,17.15l-.04,.63c-.46,6.25-.84,12.52-1.11,18.78-.54,12.32-1.18,24.64-1.9,36.95-.36,6.1-.74,12.21-1.15,18.31-1.28-.71-2.59-1.34-3.95-1.89-2.04-.83-4.03-.92-6.22-.9-2.67,.03-4.68,2.38-4.33,5.01,.39,2.86,2.89,4.08,5.5,3.67,2.89-.45,5.78-1.16,8.7-1.45-.32,4.72-.66,9.43-1.02,14.15-.47,6.24-1.09,12.47-1.52,18.72-.04,.59-.09,1.19-.13,1.79-1.74-.91-3.58-1.37-5.67-1.94l-.54-.15c-3.04-.87-6.28-2.08-9.09-.04-1.89,1.38-2.27,3.64-.7,5.46,2.37,2.75,5.88,2.22,9.16,2.08l1.76-.07c1.66-.07,3.19-.17,4.73-.59-.28,4.07-.43,8.15,.07,12.16,.27,2.17,3.11,2.73,3.87,.52,1.97-5.77,2.37-12,3.09-18.05,.67-5.65,1.08-11.34,1.52-17.01l.13-1.7c.99-12.48,1.78-24.97,2.36-37.48,.58-12.51,.93-25.01,1.06-37.53,.06-5.68-.03-11.39-.25-17.07l-.07-1.7c-.26-5.85-.08-12.05-1.38-17.78Zm259.83,131.01c-.08-.8-.71-1.79-1.66-1.67-.88,.11-1.78,.06-2.64,.2-1.14,.19-2.06,.87-3.12,1.29-1.73,.69-3.61,1.05-5.38,1.62-3.32,1.06-5.13,4.57-3.76,7.85,1.45,3.44,5.08,4.22,8.22,2.78,2.48-1.14,4.32-2.96,5.99-5.07l.47-.6c.72-.91,1.53-1.92,1.83-3.01,.29-1.07,.15-2.31,.05-3.39Zm-161.42-16.19c-4.14-.58-7.67,.83-11.5,2.17l-.31,.11c-3.9,1.35-9.58,2.28-11.58,6.28-1.2,2.41-.27,5.61,2.57,6.33,4.49,1.13,8.52-2.16,12.23-4.38l.19-.12c3.59-2.1,7.29-3.88,9.57-7.51,.61-.97,.08-2.71-1.17-2.89Zm144.47-330.03c1.66,.37,3.32,.7,4.97,1.02,6.3,3.39,12.42,6.9,18.92,9.92,6.9,3.2,13.78,6.51,20.33,10.38,13.24,7.82,24.16,18,33.18,30.47,15.58,21.54,27.18,46.38,35.47,71.58,2.13,6.47,4.04,13.02,5.73,19.63-2.98-2.77-6.52-4.47-10.48-5.92-1.68-.62-3.77,.43-4.62,1.89-.38,.65-.6,1.3-.56,2.07,.09,1.7,1.19,3.62,3,3.96,4.23,.78,8.35,2.3,12.43,3.64,.62,.2,1.15,.13,1.57-.11,4.05,17.21,6.59,34.77,7.48,52.43,.76,14.96,.29,30.03-1.36,44.97-1.27-.57-2.51-1.11-3.9-1.43-1.8-.42-3.58-.93-5.34-1.51-5.08-1.67-7.4,6.74-2.21,8.02,1.93,.48,3.88,.87,5.85,1.16,1.72,.25,3.23,.14,4.85-.12-1.24,9.32-2.93,18.57-5.08,27.69l-.47,1.99c-2.79,11.65-6.05,23.4-10.76,34.41-2.31,5.4-5.37,10.53-9.15,15.03-1.86,2.21-3.92,4.11-6.16,5.91-1.87,1.5-8.23,4.74-15.75,4.74s-9.56-.71-13.36-2.03c-7.51-2.59-14.64-6.73-21.68-10.42l-.73-.38c-3.11-1.62-6.22-3.26-9.31-4.91,.39-3.16-.29-5.82-1.94-8.74-1.78-3.16-6.18-1.59-6.51,1.65v.12c-.06,.73-.18,1.47-.33,2.21-20.69-11.37-40.94-23.53-60.87-36.2-12.84-8.16-25.54-16.57-38.05-25.22-6.26-4.33-12.46-8.73-18.6-13.22-3.22-2.35-6.42-4.72-9.61-7.11-1.33-1-2.63-2.04-3.96-3.04,.32-.41,.64-.81,.94-1.21,4.97-6.52,8.19-14.3,9.8-22.32,.97-4.84,1.44-9.86,1.58-14.8l.06-2.15c.1-3.61,.12-7.4-.54-10.9,.9,.5,1.83,.99,2.75,1.51,3.3,1.88,6.61,3.75,9.92,5.61,6.63,3.73,13.28,7.42,20.02,10.96,12.03,6.32,24.18,12.33,36.66,17.72l6.07,2.62c10.54,4.55,21.16,9.01,32.12,12.39,6.18,1.91,12.41,3.53,18.67,4.99l-2.53,2.98c-1.72,2.02-1.75,4.92,.45,6.62,2.16,1.67,5.06,.97,6.49-1.24l2.62-4.04c.56-.86,.88-1.67,1.06-2.53,2.89,.6,5.78,1.19,8.68,1.75l5.49,1.05c7.84,1.52,15.43,4.52,22.44,8.36,2.43,1.34,3.11-1.26,.53-3.07-7.54-5.29-16.34-8.28-25.42-10.79l-.45-.12c-3.33-.91-6.65-1.87-9.97-2.86,.37-1.32,.58-2.7,.53-4.21-.09-3.37-.39-6.76-.57-10.13-.38-7.07-.85-14.13-1.41-21.19-.22-2.72-.46-5.45-.73-8.17,1.78-.96,3.31-2.23,5.3-2.85l.33-.1c2.12-.57,1.41-3.32-.48-3.55-1.71-.21-3.4-.11-5.09,.25-.26,.06-.51,.12-.74,.19-.31-2.52-.65-5.04-1.04-7.55-1.03-6.62-1.76-13.59-3.9-19.94-.16-.47-.86-.64-1.11-.14-3.12,5.95-3.23,13.26-3.58,19.89l-.04,.79c-.41,7.23-.44,14.54-.3,21.78,.14,7.46,.39,14.91,.73,22.37,.13,3,.13,6.12,.64,8.99-18.57-6.05-36.82-13.3-54.3-21.88-12.33-6.05-24.56-12.35-36.65-18.88-6.06-3.27-12.14-6.49-18.19-9.77-2.12-1.15-4.24-2.31-6.36-3.46l-3.18-1.74c-2.97-1.63-5.45-3.24-8.91-3.36-1.03-.03-1.96,.45-2.61,1.18-1.86-1.32-4.01-2.14-6.27-2.12-3.4-4.7-6.85-9.37-10.43-13.93l-2.65-3.38c-4.59-5.83-9.44-11.75-15.29-16.19-2.61-1.98-5.48-3.47-8.47-4.69,.7-.17,1.39-.52,2.01-1.09,2.86-2.66,3.25-7.6,3.83-11.3,.6-3.85,.37-7.29-.23-11.12-.23-1.49-2.69-1.8-3.29-.43-1.27,2.89-2.61,5.65-3.76,8.57l-.34,.88c-1.24,3.29-3.87,6.74-3.7,10.3,.05,.98,.37,1.83,.88,2.51-2.51-.84-5.06-1.58-7.57-2.36-7.9-2.45-15.83-4.83-23.88-6.72-2.14-.51-4.3-.97-6.46-1.4-1.13-5.39-2.78-10.69-4.73-15.89,1.84-.95,3.04-2.53,4.62-3.95,1.49-1.32,2.51-2.93,3.77-4.45,1.15-1.38,.51-3.88-1.57-3.8l-.59,.02c-2.15,.1-4.23,.32-6.18,1.33l-.69,.36c-.95,.49-1.99,1.06-2.92,1.73-1.21-2.8-2.47-5.57-3.75-8.31l-1.65-3.55c-4.29-9.23-8.56-18.82-13.95-27.42-2.39-3.82-5.58-6.21-10.15-6.58-4.71-.38-9.6,.11-14.32,.28-5.47,.2-10.93,.43-16.39,.72,1.4-1.47,2.68-3.11,4.08-4.52,2.33-2.34,4.8-4.56,7.39-6.61,5.13-4.06,10.77-7.4,16.62-10.28,5.86-2.88,11.89-5.39,17.39-8.95,3.48-2.25,6.59-5.08,9.43-8.15,1.79,19.32,11.09,37.28,25.07,50.77,14.52,14.01,34.59,21.7,54.21,24.98,20.02,3.34,40.92,2.11,60.07-4.86,9.88-3.6,19.35-8.74,27.79-15.19,.09,.56,.2,1.11,.42,1.64,.29,.7,.65,1.3,1.07,1.91l.74,1.08c.46,.68,.94,1.35,1.46,1.98,1.28,1.52,3.09,2.19,5.03,2.18,3.73-.01,6.56-3.68,5.55-7.31-.63-2.28-1.98-3.65-4.09-4.55-.67-.28-1.35-.52-2.03-.75l-.51-.17c-.69-.24-1.37-.46-2.08-.59,4-3.54,7.71-7.39,11.03-11.54,10.42-13.03,20.7-31.27,17.22-48.57-.06-.3-.33-.48-.61-.53-.2-1.21-.85-2.39-1.73-3.18,.59-.16,1.19-.28,1.8-.36Zm-108.23,299.14c-2.07-1.15-4.2,1.59-2.52,3.27l2.5,2.51c2.32,2.34,4.59,4.71,6.58,7.38l.48,.65c2.68,3.66,5.55,7.91,9.95,9.28,5.32,1.66,10.44-4.85,7.36-9.6-2.69-4.15-7.88-5.72-12.35-7.43-4.23-1.62-8.05-3.87-12-6.07Zm171.71-19.15c-1.21-1.59-4.38-.75-3.55,1.5,2.69,7.32,3.79,17.29,10.58,22.15,2.19,1.57,5.64,.85,7.44-.96,2.05-2.06,2.13-4.95,.96-7.46-1.43-3.06-4.95-5.28-7.42-7.61l-.22-.21c-2.65-2.58-5.52-4.41-7.8-7.4Zm-284.05,8.42c-2.16-.93-7.81-2.75-9.48-.6-.08,.08-.14,.17-.2,.26-.41,.72-.47,1.72,0,2.43,1.95,2.94,3.98,5.13,6.75,7.22l.31,.23c3.02,2.22,5.85,4.83,9.52,5.84,5.09,1.39,8.65-5.01,5.07-8.74-2.88-3.01-7.28-4.57-11.1-6.25l-.88-.39Zm204.52-41.8c.85-1.54-.89-3.44-2.46-2.47-4.5,2.76-9.74,4.82-14.79,6.31-2.04,.6-3.89,2.68-3.74,4.92l.02,.34c.06,.79,.17,1.58,.67,2.24,1.76,2.31,4.27,3.2,6.96,1.83,5.99-3.04,10.09-7.29,13.33-13.17Zm-131.43-4.68c.11-.65-.37-1.15-1.02-1.03-3.8,.72-7.31,2.56-10.57,4.68-1.75,1.14-3.44,2.38-5.19,3.53-2.16,1.42-2.96,2.58-3.28,5.18-.21,1.71,1.38,3.28,2.85,3.75,3.99,1.29,8.56-2.94,11.26-5.69l.12-.12c2.83-2.89,5.16-6.31,5.83-10.3Zm-114.14-4.49c.87-2.35-2.12-4.29-4.07-3.14-1.84,1.08-3.83,1.98-5.57,3.23-1.59,1.14-3.05,2.5-4.57,3.73l-.76,.6c-2.8,2.26-7.43,7.85-3.42,11.09,3.81,3.09,8.87-.85,11.43-3.74l.18-.2c1.47-1.71,3.29-3.56,4.36-5.55,1.01-1.88,1.69-4.03,2.42-6.02Zm37.61-181.59c4.78,.93,6.72,6.84,8.74,10.7,4.75,9.1,9.11,18.36,13.5,27.63,1.35,2.85,2.67,5.73,3.99,8.6,.08,.23,.18,.45,.31,.66,2.72,5.87,5.51,11.69,8.79,17.26-2.99-.56-6-1.04-9.02-1.42,.15-2.85-1.79-6.67-2.76-9.07l-.08-.2c-1.2-3.08-2.46-7.92-5.55-9.52-1.03-.53-2.13,.14-2.21,1.27-.23,3.39,3.07,7.26,4.68,10.13,.98,1.74,1.93,3.48,2.85,5.25,.35,.66,.64,1.31,1,1.89-1.56-.17-3.12-.32-4.68-.43l-1.02-.07c-5.8-.38-11.95-.49-17.19,2.37-4.86,2.66-7.34,8.33-4.67,13.5,3.33,6.44,10.65,7.29,17.09,7.81,8.04,.65,16.1,1.83,24.09,2.97,8.26,1.18,16.04,4.24,24.18,5.81,.76,.15,1.23-.85,.53-1.27-6.42-3.92-14.22-6.07-21.4-8.27l-.58-.18c-3.89-1.2-7.7-2.57-11.72-3.25-3.91-.66-7.84-1.2-11.78-1.6l-.38-.04c-4.34-.36-15.42-.24-14.95-6.68,.31-4.27,7.22-5,10.38-5.05,14.47-.23,29.05,3.62,42.8,7.75l3.07,.92c5.63,1.7,11.27,3.45,16.8,5.44,6.26,2.26,11.19,5.78,15.76,10.59,5.06,5.34,9.95,10.8,15.2,15.96,3.31,3.25,6.66,6.45,10.03,9.62,.76,.99,1.37,2.07,1.8,3.46,.71,2.36,.55,4.56,.28,6.98-.68,6.12-.83,12.31-1.68,18.42-.79,5.66-1.9,11.52-4.24,16.77-.93,2.08-2.13,4.12-3.51,5.94l-1.11,1.45c-.48,.63-1.02,1.32-1.59,1.96-.83-1.02-2.04-1.68-3.44-1.52-2.98,.35-5.32,.27-8.24-.42-2.26-.53-4.51-1.15-6.76-1.73-4.42-1.13-8.89-2.16-13.26-3.46l-.75-.23c-3.26-1-6.53-2.26-9.24-4.37-3.15-2.45-4.12-5.99-6.46-9.06-4.99-6.54-15.77-6.4-23.07-8.19-6.2-1.52-12.17-3.92-16.47-8.44l-.25-.27c.19-.8-.12-1.71-.86-2.13l-.16-.09c-.29-.16-.6-.23-.91-.22-.4-.59-.78-1.19-1.13-1.84-.29-.53-1.01-.14-.91,.39,.06,.31,.13,.62,.21,.93-4.16-1.07-8.73-.87-12.95-.87l-5.48-.02c-.95-.01-2.36-.06-2.49-.12l-.13-.06c-.34-.15,.14,.1-.1-.22-.26-.35-.52-.71-.78-1.06-.91-1.27-1.77-2.59-2.61-3.91,9.18,2.34,18.68,3.8,28.05,5.02,10.05,1.31,20.24,2.21,30.38,2.22,2.8,0,2.77-4.23,0-4.34-10.74-.41-21.42-.98-32.09-2.36-5.52-.71-11.01-1.61-16.47-2.66-2.11-.4-4.21-.83-6.31-1.29l-1.57-.35c-.99-.22-3.78-.53-5.14-1.45-.27-.46-.53-.92-.8-1.38,.13-1.61,4.23-1.4,5.19-1.4,2.72,0,5.45,.02,8.17,.02,5.45,.02,10.89-.03,16.34-.08,10.88-.09,21.81-.47,32.68,0,2.64,.11,4.03-4.13,1.42-5.25-11.52-4.93-24.3-6-36.6-7.52-6.47-.8-12.94-1.72-19.26-3.33l-1.56-.4c-3.97-1.02-8.36-2.27-11.7-4.7,5.03-2.04,11.27-1.8,16.49-2.09l.4-.02c7.3-.45,14.61-.68,21.92-.69,14.96-.02,29.92,.51,44.86,1.22,.37,.02,.45-.58,.09-.65-15.36-3.36-30.96-4.98-46.68-5.23-7.32-.12-14.64-.01-21.95,.31l-2.68,.12c-6.23,.27-13.15,.34-18.37,4.12-.8,.58-1.21,1.31-1.28,2.09-7-13.98-13.46-28.26-19.94-42.44-5.04-11.03-9.9-22.14-15.13-33.09l-1.69-3.54c-2.27-4.72-4.59-9.45-7.16-14,9.64-1.29,19.33-2.19,29.03-2.88,8.84-.63,37.67-2.01,41.93-1.19Zm4.27,151.55c-1.1-.61-2.78-.11-3.05,1.25-.2,1.01-.55,2.14-.55,3.17,0,1.24,.44,2.59,.68,3.8,.54,2.79,1.21,5.06,2.62,7.54,.89,1.56,2.67,2.61,4.47,2.57,1.42-.03,2.68-.42,3.66-1.52,1.17-1.32,1.97-3.27,1.33-5.05-1.68-4.67-4.77-9.32-9.16-11.76Zm233.15-4.65c-2.57-4.52-8.67-8.55-13.99-8.15-7.99,.6-9.62,11.39-1.88,13.96,4.62,1.54,10.98-.04,15.03-2.57,1.09-.68,1.49-2.1,.85-3.23Zm82.11-15.43c.58-.85-.38-1.82-1.25-1.63-1.93,.42-4.01,.61-5.9,1.19-1.94,.59-3.81,1.57-5.73,2.25-4.02,1.41-8.31,2.12-12.2,3.82-1.55,.68-2.78,2.94-2.63,4.6l.04,.39c.09,.83,.23,1.55,.69,2.3,1.24,2.03,3.69,3.07,6,2.45,4.29-1.16,8.49-4.13,12.15-6.6l.68-.45c1.6-1.06,3.32-2.16,4.61-3.52,1.34-1.42,2.45-3.19,3.55-4.8Zm-147.59-16.43c.49-1.79-1.72-2.96-3.01-1.76-2.58,2.41-5.28,4.64-7.8,7.11l-.17,.17c-1.81,1.82-4.44,5.33-2.09,7.69,3.01,3.02,7.21-1.46,8.83-3.8,2.05-2.96,3.28-5.95,4.24-9.42Zm-197.38-14.76c3.83,4.06,9.72,5.93,14.91,7.48,6.15,1.83,12.5,2.93,18.84,3.83,6.13,.87,12.22,1.65,18.26,2.65-4.57,.06-9.13,.09-13.69,.17-5.25,.1-10.5,.21-15.76,.36-3.83,.11-8.31-.42-11.95,1.01-.66,.26-1.27,.61-1.8,1.05-3.06-5.45-5.98-10.97-8.82-16.55Zm236.01-38c-3.99-1.27-7.75-2.96-11.98-2.52-1.12,.12-1.93,1.21-1.32,2.3,2.01,3.54,5.27,5.54,8.48,7.91l.28,.21c3.51,2.62,7.29,5.01,11.11,7.16,6.58,3.7,12.48-6.9,5.83-10.01-4-1.87-8.2-3.71-12.41-5.05Zm-71.9-9.2c-6.11,.4-12.22,.68-18.33,.92-7.09,.29-4.7,11.22,1.21,9.01,5.85-2.19,11.7-4.35,17.6-6.39,1.8-.62,1.65-3.58-.37-3.55h-.11Zm156.71-19.45c-1.58-.11-3.18,.23-4.77,.39l-1.69,.16c-3.48,.35-6.74,.78-10.06,2.2-6.12,2.62-2.83,12.49,3.31,12.26,4.54-.17,8.43-2.12,12.26-4.4,3.35-1.99,5.41-4.48,7.67-7.61,.75-1.04-.3-2.2-1.32-2.3-1.8-.18-3.62-.58-5.42-.7Zm-306.83-20.15c1.01,6.34,3.53,12.28,7.32,17.45,1.9,2.6,5.25,2.7,7.13,0,2.67-3.82,1.02-8.19-.99-11.85l-.6-1.07c-.9-1.61-2.28-3.96-3.86-5.58l-.03-.17c-.85-6.64-10.02-5.31-8.98,1.22Zm247.12-40.68c-1.52-1.38-4.33-.96-4.82,1.28-.69,3.14-1.11,6.67-.66,9.85,.25,1.72,.34,3.66,1.01,5.27,.73,1.73,2.13,3.06,3.44,4.36,2.63,2.6,8.18,1.74,8.88-2.35l.09-.5c.36-1.93,.81-4,.28-5.92-.4-1.45-1.28-2.92-2.01-4.26l-.15-.29c-1.47-2.74-3.75-5.35-6.06-7.43Zm-214.1,6.67h-.55c-4.25,.09-12.02,1.13-12.07,6.4,0,1.24,.91,2.53,2.14,2.81,2.54,.59,4.18-.92,6-2.44,1.48-1.24,3.21-2.24,5-2.95,1.94-.77,1.81-3.82-.52-3.82Z"/>
  <path class="cls-1" d="M112.23,160.57c3.71-26.83,12.19-52.87,13.41-80.1,.72-11.65,1.45-23.3,2.17-34.96,.28-7.28,9.7-9.73,13.3-3.29,8.19-9.1,22.84-7.76,34.02-7.49,65.83,2.34,128.38,46.97,150.98,109.2,.54,1.48,.38,3.06-.23,4.47,10.53,35.22-26.72,57.9-52.12,73.6-10.31,10.92-22.42,19.99-36.1,26.21-15.73,7.42-33.25,11.56-50.63,11.96-3.82,.09-6.11-3.01-6.38-6.21-5.55-1.29-15.04,.2-17.97-5.5-33.45-14.57-55.24-51.49-50.44-87.91Z"/>
  <path class="cls-2" d="M127.88,65.43c.1-.87-1.16-.9-1.42-.19-2.12,5.79-4.32,11.54-6,17.48-1.62,5.72-2.78,11.57-3.97,17.4-1.96,9.67-3.64,19.41-5.04,29.19-2.98-2.33-6.87-2.54-10.54-.73-1.72,.85-2.38,3.1-1.97,4.85,.33,1.4,.74,2.79,1.22,4.16-1.04,.92-1.92,2.06-2.56,3.37-1.69,3.44-1.14,7.05,.37,10.33-.12,.2-.23,.39-.34,.6-2.19,4.27-1.02,8.09,.58,12.26,1.2,3.12,.53,6.62,3.12,8.98,.9,2.9,2.25,5.59,4.21,8.03,.45,.82,1.11,1.48,1.91,1.96,.2,4.57,.68,9.13,1.59,13.65,3.52,17.54,14.67,33.17,28.48,44.19,13.51,10.79,29.39,17.23,46.51,19.31,8.32,1.01,16.64,.69,24.89-.75l1.03-.18c7.61-1.38,16.82-3.68,22.08-9.43,2.77-3.03,1.15-9.69-3.74-9.06-2.59,.33-4.85,.75-7.29,1.71-1.9,.75-3.81,1.47-5.76,2.08-3.74,1.17-7.61,2.08-11.5,2.58-8.1,1.05-16.51,.77-24.51-.81-14.55-2.88-28.69-9.52-39.74-19.52-12.84-11.62-20.36-26.67-21.47-44.02-1.23-19.32,.99-39.11,2.84-58.34,.96-10,2.18-19.98,3.65-29.92,1.43-9.71,2.3-19.41,3.36-29.16ZM241.51,3.03l-.62-.1c-24.72-3.77-50.72-3.5-73.95,6.72-4.45,1.96-8.81,4.33-12.91,7.07-2.94-.31-5.9-.56-8.8-.6-3.65-.05-7.22,1.86-7.67,5.56-3.42,.43-6.58,1.69-8.59,4.22-.79,.98-1.31,2.12-1.58,3.31-2.1,.5-4.17,1.26-6.12,2.27-2.38,1.23-3.75,4.64-2.91,7.17,.19,.57,.41,1.13,.66,1.68l.19,.41-.11,.15c-1.9,3.06-.58,7.07,2.33,8.9,2.18,1.37,4.62,2.46,7.13,2.99-.21,1.01-.4,2.02-.55,3.05-.06,.42,.47,.71,.71,.3-.6,1.87-1.35,3.83-2.25,5.89-.53,1.21,1.17,2.29,1.82,1.07,1.73-3.27,2.8-6.63,4.36-10,1.45-.09,2.89-.43,4.28-1.06,.91-.42,1.6-1.11,2.1-1.95,.03,.04,.05,.08,.08,.12,4.67,6.02,13.78,8.13,20.83,10.03,7.57,2.05,15.31,3.31,23.09,4.24,13.58,1.62,27.26,1.92,40.9,2.55,.9,.04,1.81,.09,2.71,.13,5.54,4.87,12.68,7.9,20,8.82,3.71,.47,8.1,.35,12.26-.6,1.51,1.54,3.41,2.68,5.48,3.27,.37,7.77,4.69,15.12,11.22,19.41l-.12,.46c-1.62,6.63-1.6,13.88,4.21,18.49,.79,.62,1.65,1.16,2.55,1.6l-.2,.46c-3,7.04-3.96,14.82,1.68,20.66,2.29,2.37,6.31,1.81,8.03-.91l.08-.14c.1-.16,.2-.32,.3-.48,.15,.32,.39,.58,.74,.73,2.15,.93,3,.24,4.96-.71,1.81-.89,3.72-1.55,5.67-2.07,1.59-.42,3.18-.71,4.77-.88,10.09,3.87,16.6,15.72,15.05,26.85-.84,6.06-4.16,12.06-9.94,14.58-2.53,1.1-5.51,1.56-8.24,1.19-3.71-.5-6.56-2.85-10.4-1.51-1.51,.53-2.46,1.72-2.54,3.35-.14,2.56,.77,4.48,2.29,5.91-2.69,2.25-4.86,5.38-7.2,7.88-2.92,3.12-5.88,6.25-9.04,9.13-2.98,2.73-6.15,5.27-9.51,7.53l-.35,.23c-4.21,2.75-9.51,5.19-9.71,10.93-.07,1.73,.98,3.32,2.4,4.2,5.3,3.3,11.07-1.03,15.23-4.2,1.67-1.28,3.3-2.6,4.87-3.97,1.05,.08,2.19-.09,3.38-.62,.76-.33,1.51-.72,2.24-1.14,2.38,.6,4.63,.07,6.48-1.18,2.67,.66,5.49,.74,7.89,.21,2.19-.49,4.15-1.52,5.76-2.92,3.37,1.08,7.11,.88,10.44-1.17,1.99-1.23,3.55-2.98,4.39-5.02,.43-.68,.71-1.46,.73-2.33v-.33c2.9,.06,5.8-.93,8.04-3.23,2.06-2.11,3.06-4.74,3.18-7.42,2.91-.83,5.58-2.53,7.61-5.16,3.36-4.35,3.81-9.73,2.08-14.53,.11-.25,.21-.51,.3-.78,2.68-3.79,4.45-8.36,4.3-12.94-.02-.71-.11-1.41-.25-2.1,2.64-1.41,4.58-3.87,4.78-7.01,.16-2.46-.72-4.87-2.31-6.69,.77-1.85,1.12-3.87,.88-5.89-.24-2.07-.97-3.87-2.04-5.37,.02-.55,0-1.1-.09-1.66,.11-.55,.19-1.12,.24-1.7,.5-6.36-3.87-11.92-9.2-14.85-1.4-.77-2.92-1.4-4.43-1.93-1.1-.39-2.75-.52-3.72-1.24,.04-.03-.36-.55-.43-.83-.08-.34-.16-.68-.2-1.03-.16-1.47-.04-2.98-.01-4.46,.13-6.7-.08-13.43-.78-20.1-1.31-12.36-4.53-24.45-10.81-35.24-5.27-9.05-12.48-16.69-20.75-23.03-16.48-12.62-37.04-19.48-57.37-22.65Zm76.36,153.67c2.15-5.17-7.95-5.22-10.62-4.98h-.08c-6.01,.61-15.4,3.51-17.86,9.59-1.02,2.52,1.99,5.25,4.41,4.42,2.36-.81,3.68-2.55,5.58-4.07,.5-.4,1.01-.77,1.54-1.13-.28,.89-.72,1.71-1.34,2.32l-.14,.14c-2.91,2.62,2.29,6.74,4.22,3.27,1.03-1.85,1.44-3.87,1.12-5.97-.1-.62-.26-1.18-.5-1.72,.19-.1,.38-.2,.58-.29l.35-.16c2.31-1.05,12.19-5.19,12.11-1.49,0,.41,.52,.41,.65,.09Z"/>
  <path class="cls-2" d="M178.95,213.53c3.98-1.63,7.52-4.34,10.12-7.8,.9-1.2,1.13-2.48,.95-3.64-.21-1.31-.99-2.49-2.04-3.29-1.06-.8-2.38-1.19-3.65-.99-1.11,.17-2.21,.78-3.09,2.05l-.18,.25c-1.54,2.09-3.55,3.81-5.84,4.91-2.21,1.07-4.67,1.56-7.23,1.27-4.86-.55-8.21-3.19-11.78-6.77-.44-.45-.88-.92-1.33-1.39-.28-.43-.67-.71-1.1-.85-.48-.16-1.02-.15-1.52,.02-.48,.17-.91,.49-1.2,.91-.27,.4-.43,.9-.38,1.47,.33,3.71,2.26,7.02,5.01,9.62,3.05,2.89,7.1,4.89,10.91,5.59,4.2,.77,8.47,.22,12.35-1.36Zm-14.32-57.26c-4.46,2.72-11.27,9.07-6.46,15.82,5.65,5.95,13.79-.87,17.81-3.96,3.72-2.39,7.9,3.76,4.45,6.55-28.99,21.52-40.75-17.7-18.05-21.61,2.5-.43,3.43,2.36,2.26,3.2Zm51.95-25.04c-.49-6.14-9.82-7.53-10.75-1.46-.83,5.44,.15,10.44,2.59,15.35,2.34,4.68,8.21,2.5,8.65-1.77,.6-5.71-.19-8.3-.5-12.12Zm-70.99-2.72c-1.3-1.71-3.18-2.87-5.43-2.21-7.03,2.06-4.96,12.06-2.49,16.93,1.34,2.64,5.68,3.32,7.63,.99,3.19-3.8,4.72-11.38,.66-15.12-.11-.19-.23-.39-.38-.59Zm62.94-24.15l-1.11-.19c-3.43-.6-7.7-1.17-10.13,1.6-1.29,1.47-1.73,4.2,0,5.6,3.05,2.47,6.41,1.51,10.07,1.72,3.01,.17,5.9,.67,8.8,1.5,6.36,1.82,11.54,5.15,16.97,8.8,.71,.48,1.44-.43,1.1-1.1-3.13-6.16-9.21-11.21-15.29-14.3-3.25-1.65-6.8-3.01-10.39-3.64Zm-56.53-2.76l-.85,.18c-9.25,1.94-21.26,5.81-25.64,14.92-.17,1.29,0,1.56,.15,1.74l.05,.06c.12,.15,.21,.37,.77,.54,.15-.04,.31-.08,.47-.12,2.01-.53,3.6-1.25,5.13-2.01l1.67-.82c1.93-.95,3.88-1.87,5.95-2.54,4.41-1.44,8.95-2.46,13.56-3,1-.12,1.96-.46,2.72-1.04,.72-.55,1.27-1.31,1.52-2.32,.33-1.31,.23-2.3-.47-3.48-.53-.89-1.28-1.5-2.15-1.86-.88-.36-1.89-.44-2.89-.24Z"/>
  <path class="cls-2" d="M111.71,159.89c7.18,7.44,19.16,9.57,28.71,5.58,24.52-10.27,12.52-42.32-6.39-50.93-2.36-.59-5.52-1.99-8.4-2.31-.26-.13-.83,.24-1.51-.11-20.86,2.33-25.6,34.8-12.41,47.76Zm79.1,1.9c8.05,10.71,23.02,14.01,35.25,9.04,24.16-9.54,15.59-37.96-.94-49.1-34.92-13.16-49.34,20.32-34.31,40.07Zm52.38-23.73s.04-.02,.07-.03c-.13-.06-.26-.11-.38-.17,.04,.11,.09,.21,.13,.32,.06-.04,.12-.09,.19-.13Zm-148.1-11.58c1.97,0,4.82,.33,6.45,1.7,4.02-13.61,18.88-26.21,31.8-17.02,10.17,3.28,17.72,10.56,22.01,20.23,7.74-4.61,19.9-2.64,26.61,3.46,4.39-14.56,15.21-19.66,28.07-20.41,14.05-2.31,28.05,11.37,32.42,22.35,3.63-.42,9.06-1.57,12.48,.67,22.18-5.83,60.95-9.05,65.46-5.81,3.21,1.24,4.98,8.84,.49,9.25-3.91-.56,.46-5.57-3.49-6.12-21-1.3-41.39,2.94-62.18,4.72-1.86,2.5-7.85,3.34-11.05,2.33,5.04,18.62-5.84,31.28-22.13,35.07-25.23,5.81-47.18-16.82-40.58-40.36-7.64-3.81-16.43-3.65-24.76-1.64,13.91,51.34-68.55,49.04-55.67-4.97-8.57,4.27-10.43-2.6-5.94-3.46Z"/>
</svg>